<svg width="16" height="16" viewBox="0 0 16 16" fill="none" xmlns="http://www.w3.org/2000/svg">
<g id="Frame" opacity="0.5">
<g id="Group">
<path id="Vector" d="M10.9996 3.33334L9.66624 2C8.73291 1.06667 7.19958 1.06667 6.26624 2L4.93291 3.33334C4.66624 3.6 4.66624 4 4.93291 4.26667L7.46624 6.8C7.73291 7.06667 8.13291 7.06667 8.39958 6.8L10.9329 4.26667C11.2662 4 11.2662 3.6 10.9996 3.33334Z" fill="#2F2D2D"/>
<path id="Vector_2" d="M3.33314 5L1.9998 6.33334C1.06647 7.26667 1.06647 8.8 1.9998 9.73334L3.33314 11.0667C3.5998 11.3333 3.9998 11.3333 4.26647 11.0667L6.7998 8.53334C7.06647 8.26667 7.06647 7.86667 6.7998 7.6L4.26647 5C3.9998 4.73334 3.5998 4.73334 3.33314 5Z" fill="#2F2D2D"/>
<path id="Vector_3" d="M13.9331 6.33334L12.5998 5C12.3331 4.73334 11.9331 4.73334 11.6664 5L9.13311 7.53334C8.86644 7.8 8.86644 8.2 9.13311 8.46667L11.6664 11C11.9331 11.2667 12.3331 11.2667 12.5998 11L13.9331 9.66667C14.8664 8.8 14.8664 7.26667 13.9331 6.33334Z" fill="#2F2D2D"/>
<path id="Vector_4" d="M4.99998 12.6667L6.33331 14C7.26665 14.9333 8.79998 14.9333 9.73331 14L11.0666 12.6667C11.3333 12.4 11.3333 12 11.0666 11.7333L8.53331 9.2C8.26665 8.93333 7.86665 8.93333 7.59998 9.2L5.06665 11.7333C4.73331 12 4.73331 12.4 4.99998 12.6667Z" fill="#2F2D2D"/>
</g>
</g>
</svg>
