<svg width="16" height="16" viewBox="0 0 16 16" fill="none" xmlns="http://www.w3.org/2000/svg">
<g id="Frame" opacity="0.5" clip-path="url(#clip0_1429_10924)">
<g id="Group">
<g id="Layer 2">
<path id="Vector" d="M7.99984 0.666672C6.54944 0.666672 5.13162 1.09676 3.92566 1.90256C2.7197 2.70836 1.77977 3.85367 1.22472 5.19366C0.669681 6.53365 0.524457 8.00814 0.807415 9.43067C1.09037 10.8532 1.78881 12.1599 2.81439 13.1855C3.83998 14.211 5.14665 14.9095 6.56918 15.1924C7.99171 15.4754 9.4662 15.3302 10.8062 14.7751C12.1462 14.2201 13.2915 13.2801 14.0973 12.0742C14.9031 10.8682 15.3332 9.4504 15.3332 8.00001C15.3309 6.05579 14.5575 4.19186 13.1828 2.81709C11.808 1.44232 9.94406 0.668965 7.99984 0.666672ZM10.4712 10.4713C10.3462 10.5963 10.1766 10.6665 9.99984 10.6665C9.82306 10.6665 9.65353 10.5963 9.52851 10.4713L7.52851 8.47134C7.40347 8.34634 7.33321 8.1768 7.33317 8.00001V4.00001C7.33317 3.82319 7.40341 3.65363 7.52844 3.5286C7.65346 3.40358 7.82303 3.33334 7.99984 3.33334C8.17665 3.33334 8.34622 3.40358 8.47124 3.5286C8.59627 3.65363 8.66651 3.82319 8.66651 4.00001V7.72401L10.4712 9.52867C10.5962 9.65369 10.6664 9.82323 10.6664 10C10.6664 10.1768 10.5962 10.3463 10.4712 10.4713Z" fill="#2F2D2D"/>
</g>
</g>
</g>
<defs>
<clipPath id="clip0_1429_10924">
<rect width="16" height="16" fill="white"/>
</clipPath>
</defs>
</svg>
