<svg width="16" height="16" viewBox="0 0 16 16" fill="none" xmlns="http://www.w3.org/2000/svg">
<g id="Frame" opacity="0.5" clip-path="url(#clip0_1429_10932)">
<g id="Group">
<g id="Group_2">
<path id="Vector" d="M13.625 13.625C13.625 12.8496 12.9942 12.2188 12.2188 12.2188C11.6084 12.2188 11.093 12.6118 10.8988 13.1562H5.10116C4.907 12.6118 4.39156 12.2188 3.78125 12.2188C3.00581 12.2188 2.375 12.8496 2.375 13.625C2.375 14.3893 2.98703 15.0312 3.78125 15.0312C4.40844 15.0312 4.91147 14.6307 5.10178 14.0938H10.8981C11.0891 14.6336 11.5953 15.0312 12.2188 15.0312C13.019 15.0312 13.625 14.3824 13.625 13.625Z" fill="#2F2D2D"/>
<path id="Vector_2" d="M3.38619 11.0647C3.47225 11.1998 3.6215 11.2812 3.78125 11.2812C3.941 11.2812 4.09025 11.1998 4.17631 11.0647L6.94303 6.73609C7.328 6.13416 7.53125 5.43653 7.53125 4.71875C7.53125 2.65103 5.84897 0.96875 3.78125 0.96875C1.71353 0.96875 0 2.65103 0 4.71875C0 5.43653 0.20325 6.13416 0.588219 6.73566L3.38619 11.0647ZM3.78125 2.84375C4.81534 2.84375 5.65625 3.68466 5.65625 4.71875C5.65625 5.75284 4.81534 6.59375 3.78125 6.59375C2.74716 6.59375 1.90625 5.75284 1.90625 4.71875C1.90625 3.68466 2.74716 2.84375 3.78125 2.84375Z" fill="#2F2D2D"/>
<path id="Vector_3" d="M12.2188 0.96875C10.151 0.96875 8.46875 2.65103 8.46875 4.71875C8.46875 5.43653 8.672 6.13416 9.05697 6.73566L11.8237 11.0647C11.9097 11.1998 12.059 11.2812 12.2188 11.2812C12.3785 11.2812 12.5278 11.1998 12.6138 11.0647L15.4118 6.73609C15.7968 6.13416 16 5.43653 16 4.71875C16 2.65103 14.2865 0.96875 12.2188 0.96875ZM12.2188 6.59375C11.1847 6.59375 10.3438 5.75284 10.3438 4.71875C10.3438 3.68466 11.1847 2.84375 12.2188 2.84375C13.2528 2.84375 14.0938 3.68466 14.0938 4.71875C14.0938 5.75284 13.2528 6.59375 12.2188 6.59375Z" fill="#2F2D2D"/>
</g>
</g>
</g>
<defs>
<clipPath id="clip0_1429_10932">
<rect width="16" height="16" fill="white"/>
</clipPath>
</defs>
</svg>
