<svg width="16" height="16" viewBox="0 0 16 16" fill="none" xmlns="http://www.w3.org/2000/svg">
<g id="Frame" opacity="0.5" clip-path="url(#clip0_1429_10942)">
<g id="Group">
<path id="Vector" d="M7.99978 0.72728C6.56137 0.72728 5.15526 1.15382 3.95927 1.95296C2.76328 2.75209 1.83111 3.88794 1.28066 5.21685C0.730202 6.54577 0.586178 8.00808 0.866797 9.41885C1.14742 10.8296 1.84008 12.1255 2.85719 13.1426C3.8743 14.1597 5.17017 14.8524 6.58094 15.133C7.99171 15.4136 9.45402 15.2696 10.7829 14.7191C12.1119 14.1687 13.2477 13.2365 14.0468 12.0405C14.846 10.8445 15.2725 9.43842 15.2725 8.00001C15.2703 6.07183 14.5034 4.22325 13.14 2.85982C11.7765 1.49639 9.92796 0.729461 7.99978 0.72728ZM7.99978 12.3636C7.29153 12.3652 6.59356 12.1942 5.96614 11.8657C5.33871 11.5371 4.80069 11.0608 4.39854 10.4778C3.99638 9.89475 3.74218 9.22262 3.65788 8.51941C3.57358 7.81619 3.66171 7.10302 3.91467 6.44149C4.16764 5.77995 4.57782 5.18993 5.10981 4.72237C5.64179 4.25481 6.27959 3.92377 6.96813 3.75784C7.65667 3.5919 8.37525 3.59605 9.06182 3.76994C9.74839 3.94382 10.3823 4.28221 10.9089 4.75589V4.60607C10.9089 4.47748 10.96 4.35415 11.0509 4.26323C11.1418 4.1723 11.2651 4.12122 11.3937 4.12122C11.5223 4.12122 11.6456 4.1723 11.7366 4.26323C11.8275 4.35415 11.8786 4.47748 11.8786 4.60607V6.06061C11.8786 6.1892 11.8275 6.31253 11.7366 6.40345C11.6456 6.49438 11.5223 6.54546 11.3937 6.54546H9.93918C9.81059 6.54546 9.68726 6.49438 9.59634 6.40345C9.50541 6.31253 9.45433 6.1892 9.45433 6.06061C9.45433 5.93202 9.50541 5.8087 9.59634 5.71777C9.68726 5.62685 9.81059 5.57576 9.93918 5.57576H10.3755C9.81585 5.02715 9.08353 4.68915 8.30294 4.61915C7.52234 4.54914 6.74157 4.75145 6.0932 5.19172C5.44482 5.63199 4.96879 6.28308 4.74594 7.03446C4.52309 7.78584 4.56715 8.59118 4.87063 9.31377C5.17412 10.0363 5.71832 10.6316 6.41086 10.9985C7.10339 11.3655 7.90157 11.4814 8.66987 11.3267C9.43817 11.1719 10.1292 10.7561 10.6258 10.1497C11.1223 9.54327 11.3936 8.78374 11.3937 8.00001C11.3937 7.87142 11.4448 7.74809 11.5357 7.65717C11.6267 7.56624 11.75 7.51516 11.8786 7.51516C12.0072 7.51516 12.1305 7.56624 12.2214 7.65717C12.3123 7.74809 12.3634 7.87142 12.3634 8.00001C12.3621 9.15692 11.902 10.2661 11.0839 11.0841C10.2659 11.9022 9.1567 12.3624 7.99978 12.3636ZM9.31227 8.62692C9.35857 8.67164 9.39551 8.72514 9.42092 8.7843C9.44633 8.84345 9.45971 8.90707 9.46027 8.97145C9.46083 9.03583 9.44856 9.09967 9.42418 9.15926C9.3998 9.21884 9.3638 9.27298 9.31828 9.3185C9.27275 9.36403 9.21862 9.40003 9.15903 9.42441C9.09945 9.44878 9.0356 9.46105 8.97122 9.46049C8.90685 9.45993 8.84322 9.44656 8.78407 9.42115C8.72492 9.39574 8.67142 9.3588 8.62669 9.31249L7.65699 8.3428C7.56606 8.25189 7.51496 8.12859 7.51493 8.00001V6.06061C7.51493 5.93202 7.56602 5.8087 7.65694 5.71777C7.74787 5.62685 7.87119 5.57576 7.99978 5.57576C8.12837 5.57576 8.25169 5.62685 8.34262 5.71777C8.43355 5.8087 8.48463 5.93202 8.48463 6.06061V7.79928L9.31227 8.62692Z" fill="#2F2D2D"/>
</g>
</g>
<defs>
<clipPath id="clip0_1429_10942">
<rect width="16" height="16" fill="white"/>
</clipPath>
</defs>
</svg>
