<svg width="13" height="12" viewBox="0 0 13 12" fill="none" xmlns="http://www.w3.org/2000/svg">
<g id="Class/Bard_Icon">
<path id="Vector" d="M11.9807 5.86887C11.9807 5.13643 11.5779 4.11938 11.2493 3.33088C11.5084 3.4139 11.7679 3.50693 12.0249 3.61237L11.7709 3.04597C11.5223 2.9482 11.2719 2.86225 11.0225 2.7859C10.974 2.66662 10.932 2.55916 10.9 2.46816C10.7733 2.10678 11.1306 1.64078 11.5671 1.59957V1.00449C11.5671 1.00449 9.58276 0.841977 9.75894 2.4731C8.09924 2.15263 6.75004 2.21616 6.75004 2.21616C6.75004 2.21616 5.40106 2.15264 3.74169 2.473C3.91775 0.841979 1.93353 1.00449 1.93353 1.00449V1.59957C2.37 1.64078 2.72691 2.10678 2.60062 2.46816C2.56867 2.55905 2.52672 2.66641 2.47814 2.78569C2.22816 2.86215 1.97819 2.9481 1.72909 3.04597L1.4751 3.61237C1.73224 3.50682 1.99211 3.4138 2.25142 3.33068C1.92287 4.11918 1.51988 5.13633 1.51988 5.86887C1.51988 8.6431 3.63681 10.9104 6.58995 10.9964V10.9993H6.70581C6.71667 10.9993 6.72667 11 6.73722 11C6.74167 11 6.74591 11 6.75026 11C6.75461 11 6.75895 11 6.7633 11C6.77417 11 6.78428 10.9993 6.79482 10.9993H6.91068V10.9965C9.86403 10.9104 11.9807 8.6432 11.9807 5.86887ZM8.68243 5.99007L8.72525 5.98098V8.84792C8.48861 8.9749 8.23814 9.07819 7.97805 9.15607V6.25297C8.19697 6.13241 8.43454 6.04388 8.68243 5.99048V5.99007ZM8.72525 5.85524L8.68243 5.84605C8.43452 5.79265 8.19694 5.70408 7.97805 5.58345V2.72014C8.20498 2.73691 8.45626 2.76054 8.72525 2.79296V5.85524ZM4.8182 5.84605L4.77538 5.85524V2.79296C5.04469 2.76034 5.29564 2.73681 5.52257 2.72014V5.58396C5.30367 5.70454 5.0661 5.79307 4.8182 5.84645V5.84605ZM4.77538 5.98098L4.8182 5.99007C5.06609 6.04353 5.30366 6.13209 5.52257 6.25267V9.15617C5.26248 9.0783 5.01202 8.975 4.77538 8.84802V5.98098ZM7.06968 7.11812C7.22028 6.86732 7.41974 6.64471 7.65787 6.46163V9.23909C7.41254 9.29229 7.16238 9.32398 6.91068 9.33373V7.71401C6.91068 7.50616 6.96099 7.29992 7.06968 7.11812ZM9.92598 3.15323C10.2442 3.9499 10.5748 5.04978 10.5748 5.87069C10.5748 7.03218 9.97359 8.03145 9.04543 8.65461V2.83478C9.30725 2.87205 9.58287 2.91841 9.86664 2.97507C9.88468 3.03324 9.90359 3.09202 9.92598 3.15353V3.15323ZM7.65776 2.69985V5.37459C7.42324 5.19446 7.22621 4.97592 7.07642 4.72981C6.96208 4.54185 6.91057 4.32642 6.91057 4.11049V2.67995C7.06446 2.67924 7.3228 2.68207 7.65776 2.69985ZM6.58984 2.67965V4.11019C6.58984 4.32612 6.53833 4.54155 6.42399 4.72951C6.27417 4.9756 6.07714 5.19412 5.84264 5.37428V2.69985C6.17793 2.68207 6.43627 2.67924 6.58995 2.67995L6.58984 2.67965ZM2.9257 5.8712C2.9257 5.05028 3.25631 3.95041 3.57443 3.15373C3.59692 3.09212 3.61583 3.03334 3.63387 2.97516C3.91765 2.9185 4.19327 2.87215 4.45509 2.83498V8.65512C3.52693 8.03176 2.9258 7.03278 2.9258 5.871L2.9257 5.8712ZM5.84275 9.23959V6.46214C6.08086 6.64524 6.28031 6.86785 6.43095 7.11863C6.53963 7.29982 6.58995 7.50636 6.58995 7.71381V9.33443C6.33824 9.32463 6.08808 9.29287 5.84275 9.23959Z" fill="black"/>
<path id="Vector_2" d="M12.525 5.85156L12.4624 5.86368C12.6013 6.99486 12.4028 8.06898 11.8727 8.98918C11.2462 10.0769 10.1738 10.686 9.66724 10.9262L9.69136 10.9822C13.3856 10.1054 12.8361 6.94487 12.525 5.85156Z" fill="black"/>
<path id="Vector_3" d="M1.62731 8.98918C1.09715 8.06898 0.89913 6.99506 1.0377 5.86368L0.9751 5.85156C0.663939 6.94487 0.11433 10.1054 3.80869 10.9823L3.83282 10.9263C3.32625 10.6862 2.25387 10.0773 1.62731 8.98918Z" fill="black"/>
</g>
</svg>
