<svg width="13" height="12" viewBox="0 0 13 12" fill="none" xmlns="http://www.w3.org/2000/svg">
<g id="Class/Artificer_Icon">
<path id="Vector" d="M11.6832 6.67765C11.6832 6.67765 11.7524 6.43594 11.7524 5.99996C11.7522 5.77231 11.729 5.54525 11.6832 5.32227L10.5578 5.09628C10.4617 4.6908 10.3012 4.30339 10.0822 3.94886L10.7184 2.99253C10.7184 2.99253 10.5963 2.77273 10.288 2.46449C10.1269 2.30363 9.94997 2.15946 9.75988 2.03416L8.8034 2.6698C8.44893 2.45095 8.06161 2.29042 7.65624 2.19433L7.4296 1.06908C7.4296 1.06908 7.18777 1 6.7518 1C6.52412 1.00015 6.29704 1.0233 6.07401 1.06908L5.84737 2.19433C5.44197 2.29042 5.05462 2.45095 4.70012 2.6698L3.74372 2.03416C3.74372 2.03416 3.52389 2.15626 3.21552 2.46449C3.05466 2.62559 2.91047 2.8025 2.78512 2.99253L3.4213 3.94886C3.20203 4.30333 3.04119 4.69075 2.94496 5.09628L1.81945 5.32244C1.81945 5.32244 1.75 5.56451 1.75 6.00013C1.75015 6.22778 1.7733 6.45483 1.8191 6.67783L2.94461 6.90443C3.04063 7.30979 3.20119 7.69709 3.42015 8.0515L2.78397 9.00774C2.78397 9.00774 2.90608 9.22754 3.21437 9.53586C3.37548 9.69673 3.55245 9.84091 3.74258 9.96619L4.69897 9.33011C5.05343 9.54904 5.44079 9.70958 5.84622 9.80558L6.07286 10.9309C6.07286 10.9309 6.31461 11 6.75066 11C6.97834 10.9998 7.20542 10.9767 7.42845 10.9309L7.6551 9.80558C8.06049 9.70957 8.44782 9.54903 8.80225 9.33011L9.75874 9.96619C9.75874 9.96619 9.97857 9.8441 10.2869 9.53586C10.4478 9.37477 10.592 9.19783 10.7173 9.00774L10.0811 8.0515C10.3 7.69707 10.4606 7.30978 10.5566 6.90443L11.6832 6.67765ZM6.7511 9.20148C4.98278 9.20148 3.54925 7.76818 3.54925 6.00013C3.54925 4.23209 4.98304 2.79932 6.7511 2.79932C8.51915 2.79932 9.95286 4.23253 9.95286 6.00057C9.95286 7.76862 8.51968 9.20148 6.7511 9.20148Z" fill="black"/>
<path id="Vector_2" d="M7.61701 6.40185L9.16055 6.04635V5.95403L7.61701 5.59844C7.49123 5.56947 7.37636 5.50513 7.28596 5.41301C7.19556 5.32088 7.13341 5.20483 7.10683 5.07854L6.79757 3.61157H6.70489L6.39625 5.07863C6.36965 5.20491 6.30749 5.32095 6.21709 5.41307C6.1267 5.50519 6.01184 5.56954 5.88607 5.59853L4.34253 5.95412V6.04644L5.88607 6.40194C6.01184 6.43093 6.1267 6.49529 6.21709 6.5874C6.30749 6.67952 6.36965 6.79557 6.39625 6.92185L6.70497 8.38881H6.79766L7.10692 6.92185C7.13347 6.79555 7.19561 6.67949 7.28599 6.58735C7.37637 6.49521 7.49123 6.43084 7.61701 6.40185Z" fill="black"/>
<path id="Vector_3" d="M8.05192 5.32827L8.52959 5.43835C8.43744 5.14903 8.2763 4.88645 8.06006 4.67326C7.84382 4.46007 7.57896 4.30266 7.28833 4.2146L7.3865 4.68089C7.67224 4.81941 7.90562 5.04647 8.05192 5.32827Z" fill="black"/>
<path id="Vector_4" d="M7.3865 7.31923L7.28833 7.7856C7.57895 7.69749 7.84379 7.54006 8.06003 7.32686C8.27626 7.11365 8.43741 6.85108 8.52959 6.56177L8.05192 6.67184C7.90565 6.95367 7.67226 7.18073 7.3865 7.31923Z" fill="black"/>
<path id="Vector_5" d="M6.21428 7.7856L6.11612 7.31923C5.83038 7.18073 5.59702 6.95366 5.45078 6.67184L4.97302 6.56177C5.0652 6.85108 5.22635 7.11365 5.44259 7.32686C5.65882 7.54006 5.92366 7.69749 6.21428 7.7856Z" fill="black"/>
<path id="Vector_6" d="M5.45078 5.32827C5.59705 5.04647 5.8304 4.81942 6.11612 4.68089L6.21428 4.2146C5.92367 4.3027 5.65884 4.46013 5.4426 4.67331C5.22637 4.8865 5.06521 5.14905 4.97302 5.43835L5.45078 5.32827Z" fill="black"/>
<path id="Vector_7" d="M7.07593 3.20581L7.16376 3.6228C8.16044 3.79516 8.94966 4.58098 9.12691 5.57592L9.54555 5.67231C9.39508 4.38185 8.36729 3.35511 7.07593 3.20581Z" fill="black"/>
<path id="Vector_8" d="M6.33895 3.62304L6.42669 3.20605C5.13533 3.35509 4.10754 4.38184 3.95715 5.67255L4.3758 5.57617C4.55296 4.58123 5.34217 3.7954 6.33895 3.62304Z" fill="black"/>
<path id="Vector_9" d="M7.16376 8.37739L7.07593 8.79438C8.36729 8.64534 9.39508 7.61869 9.54555 6.32788L9.12691 6.42435C8.94966 7.41929 8.16044 8.20503 7.16376 8.37739Z" fill="black"/>
<path id="Vector_10" d="M4.3758 6.42435L3.95715 6.32788C4.10736 7.61869 5.13533 8.64534 6.42669 8.79438L6.33895 8.37739C5.34217 8.20503 4.55296 7.41929 4.3758 6.42435Z" fill="black"/>
</g>
</svg>
