<svg width="13" height="12" viewBox="0 0 13 12" fill="none" xmlns="http://www.w3.org/2000/svg">
<g id="Class/Wizard_Icon">
<path id="Vector" d="M9.06677 3.9397C9.06677 3.9397 9.93423 4.64361 10.352 5.67006C10.9881 7.23295 10.4622 8.76795 9.96851 9.40037C9.96851 9.40037 11.8986 8.13067 11.0213 5.82082C10.5415 4.55769 9.06677 3.9397 9.06677 3.9397Z" fill="black"/>
<path id="Vector_2" d="M6.47876 4.07416L6.7957 4.4155L6.18102 5.31525L5.97171 5.40295L4.36597 4.17759L4.4625 3.42147L6.43015 1.84375L8.64437 3.47432L8.70506 4.61093L8.65497 4.84989L6.21472 7.52847L6.82741 8.31166L6.55162 10.8725L6.22375 11L5.89455 8.43511L5.04208 7.47676L7.63029 4.33274L6.42726 3.29162L5.61254 4.03282L5.97171 4.4155L6.47876 4.07416Z" fill="black"/>
<path id="Vector_3" d="M5.23106 1C4.99467 1.36031 5.03168 1.94409 5.49211 2.24757L5.99634 1.84374C5.28711 1.62067 5.23106 1 5.23106 1Z" fill="black"/>
<path id="Vector_4" d="M4.02755 6.65987C4.02755 6.20043 4.19207 5.77771 4.46778 5.44059C4.46778 5.44059 3.18882 6.02973 3.23892 7.87592C3.23892 7.87592 2.56222 6.23221 3.92612 4.31226C3.02472 4.86345 2.25 6.15634 2.25 7.13966C2.25 8.50898 3.19652 9.70168 4.53666 10.2561C4.58725 10.2909 4.61805 10.3108 4.61805 10.3108L3.01238 10.5176L5.9288 10.8517L5.63901 8.59774C4.71467 8.38723 4.02755 7.59975 4.02755 6.65987Z" fill="black"/>
<path id="Vector_5" d="M9.20431 9.35763C9.77113 8.76307 10.1128 7.99739 10.1128 7.16151C10.1128 6.61575 9.96066 6.09884 9.66276 5.64953C9.53508 5.4571 9.27676 5.05253 9.06662 4.75537L9.01695 4.99109L8.59195 5.45758C9.5138 7.19986 8.51015 8.08388 8.51015 8.08388C8.69611 7.0011 8.29885 6.2642 8.11016 5.98665L8.10478 5.99257C8.20281 6.24798 8.24363 6.47787 8.23875 6.66001C8.22924 7.02554 8.11968 7.38188 7.92151 7.69183C7.72334 8.00177 7.44383 8.25396 7.11214 8.42206L6.85059 10.8472L9.73247 10.5171L8.12672 10.3102C8.12672 10.3102 8.78868 9.88792 9.20431 9.35763Z" fill="black"/>
</g>
</svg>
