<svg width="13" height="12" viewBox="0 0 13 12" fill="none" xmlns="http://www.w3.org/2000/svg">
<g id="Class/Warlock_Icon">
<path id="Vector" d="M3.78928 5.07939H3.78863C3.92243 4.19446 4.42119 3.55707 4.61099 3.34155L4.58081 3.30576C3.86124 3.63891 3.38246 4.45406 3.38246 4.45406C3.46338 3.65527 4.04413 2.96369 4.32876 2.66853L4.29726 2.63306C3.273 3.23716 2.59965 4.24489 2.53369 5.52969L3.73262 5.38567C3.74586 5.28271 3.76478 5.18047 3.78928 5.07939Z" fill="black"/>
<path id="Vector_2" d="M5.5384 8.1982C5.5384 8.1982 6.21152 9.98718 6.45387 11L6.50255 10.975C6.54151 10.9551 6.5748 10.9264 6.59955 10.8915C6.6243 10.8565 6.63978 10.8164 6.64465 10.7745L6.75 9.86783L6.85543 10.7745C6.8603 10.8164 6.87577 10.8565 6.90051 10.8914C6.92525 10.9264 6.95851 10.955 6.99745 10.975L7.04622 11C7.28857 9.98718 7.96168 8.1982 7.96168 8.1982C8.59449 6.6527 9.63174 6.4967 9.63174 6.4967L11.75 5.96151C11.7214 5.91479 11.6808 5.87577 11.632 5.8481C11.5833 5.82043 11.5279 5.80502 11.4711 5.80332C10.6263 5.7774 9.73339 5.66643 9.73339 5.66643C8.87977 5.56368 8.78298 4.88463 8.78298 4.88463L8.39252 2.82586C8.16365 1.5749 8.67525 1 8.67525 1C7.54432 1.32053 7.69244 3.11539 7.69244 3.11539L7.80017 4.49996C7.27632 4.05201 7.09202 3.42621 7.03832 3.18751H6.99589L6.75 4.2178L6.50411 3.18751H6.46176C6.40806 3.42621 6.22377 4.05201 5.69992 4.49996L5.80765 3.11539C5.80765 3.11539 5.95567 1.32053 4.82483 1C4.82483 1 5.33643 1.5749 5.10756 2.82586L4.7171 4.88486C4.7171 4.88486 4.62031 5.56392 3.76669 5.66666C3.76669 5.66666 2.87377 5.77763 2.02895 5.80355C1.97219 5.80526 1.91681 5.82067 1.86802 5.84834C1.81923 5.87601 1.77862 5.91503 1.75 5.96174L3.86834 6.49693C3.86834 6.49693 4.90559 6.6527 5.5384 8.1982ZM5.68643 5.15387L6.66925 5.58968C6.66925 5.58968 6.65576 5.80763 6.41349 5.83323L6.75 6.8845L7.0866 5.83323C6.84424 5.80763 6.83084 5.58968 6.83084 5.58968L7.81357 5.15379C8.44186 6.15808 8.04383 6.66773 7.56587 6.92233C7.31632 7.05438 7.03553 7.12367 6.75004 7.12367C6.46455 7.12367 6.18376 7.05438 5.93421 6.92233C5.45625 6.66781 5.05822 6.15815 5.68643 5.15387Z" fill="black"/>
<path id="Vector_3" d="M6.15093 5.68585C5.69995 5.95212 5.97256 6.60892 5.97256 6.60892H5.92207C5.45422 6.02236 5.88169 5.55444 5.88169 5.55444L6.15093 5.68585Z" fill="black"/>
<path id="Vector_4" d="M5.18479 8.23263C5.2991 8.57164 5.56308 9.32219 5.70733 9.73185C4.10214 9.33676 2.89129 8.06809 2.59705 6.48633L3.92969 6.82174C4.17761 7.40847 4.61781 7.9033 5.18479 8.23263Z" fill="black"/>
<path id="Vector_5" d="M6.52783 2.15859C6.52783 1.83649 6.74987 1.48071 6.74987 1.48071C6.74987 1.48071 6.97191 1.83649 6.97191 2.15859C6.97191 2.41177 6.74987 3.14901 6.74987 3.14901C6.74987 3.14901 6.52783 2.41177 6.52783 2.15859Z" fill="black"/>
<path id="Vector_6" d="M7.57799 6.60892H7.52749C7.52749 6.60892 7.80011 5.95188 7.34912 5.68585L7.61837 5.55444C7.61837 5.55444 8.04575 6.02236 7.57799 6.60892Z" fill="black"/>
<path id="Vector_7" d="M9.71087 5.07939H9.71153C9.57773 4.19446 9.07896 3.55707 8.88916 3.34155L8.91934 3.30576C9.63891 3.63891 10.1176 4.45406 10.1176 4.45406C10.0368 3.65527 9.45594 2.96369 9.17132 2.66853L9.20289 2.63306C10.2272 3.23716 10.9005 4.24489 10.9665 5.52969L9.76753 5.38567C9.75429 5.28271 9.73538 5.18047 9.71087 5.07939Z" fill="black"/>
<path id="Vector_8" d="M9.57028 6.82174L10.903 6.48633C10.6087 8.06825 9.39807 9.33691 7.79272 9.73185C7.93713 9.32219 8.20087 8.57164 8.31526 8.23263C8.88221 7.90328 9.32238 7.40845 9.57028 6.82174Z" fill="black"/>
</g>
</svg>
