<svg width="13" height="12" viewBox="0 0 13 12" fill="none" xmlns="http://www.w3.org/2000/svg">
<g id="Class/Sorcerer_Icon">
<path id="Vector" d="M9.64155 5.25836C10.6991 7.09199 9.89836 8.37055 9.89836 8.37055C9.94147 6.57964 8.84058 6.00806 8.84058 6.00806C9.08805 6.35052 9.22093 6.76525 9.21955 7.19085C9.21955 8.259 8.40807 9.12488 7.4071 9.12488C6.40613 9.12488 5.62031 8.25867 5.59465 7.19085C5.58389 6.74334 5.82095 6.00016 6.49275 5.30035C6.93339 4.84137 7.25084 4.35514 7.40654 4.03106C8.02806 2.73957 7.57388 1.26338 7.13292 1C7.13292 1 7.74647 2.43608 6.79459 3.6585C6.32542 4.26059 5.67649 4.74927 5.13608 5.25625C4.99911 5.37781 4.53934 5.92116 4.36898 6.21073C4.11248 6.6466 3.98157 7.14805 3.98157 7.67749C3.98157 9.5125 5.48549 11 7.34065 11C9.19581 11 10.75 9.49118 10.75 7.65593C10.7498 6.70242 10.2541 5.69212 9.64155 5.25836Z" fill="black"/>
<path id="Vector_2" d="M7.73561 6.85019L7.38716 5.21265L7.03871 6.85019C7.02994 6.8895 7.01035 6.92544 6.98224 6.95377C6.95413 6.98209 6.91868 7.00163 6.88006 7.01007L5.17773 7.39801L6.88006 7.78604C6.91868 7.79448 6.95413 7.81401 6.98224 7.84233C7.01035 7.87066 7.02994 7.9066 7.03871 7.94592L7.38716 9.58346L7.73561 7.94608C7.74432 7.90675 7.76389 7.87079 7.79199 7.84245C7.82009 7.81412 7.85555 7.7946 7.89418 7.7862L9.59659 7.39817L7.89418 7.01039C7.85554 7.00191 7.82007 6.98233 7.79198 6.95394C7.76388 6.92555 7.74432 6.88955 7.73561 6.85019Z" fill="black"/>
<path id="Vector_3" d="M8.97584 4.40385L8.83863 3.75903L8.70141 4.40385C8.69218 4.44529 8.67151 4.48318 8.64186 4.51301C8.61221 4.54284 8.5748 4.56338 8.53408 4.57219L7.86108 4.72556L8.53408 4.87893C8.57481 4.88776 8.61221 4.90831 8.64187 4.93816C8.67152 4.968 8.69218 5.0059 8.70141 5.04736L8.83863 5.69209L8.97584 5.04727C8.98507 5.00582 9.00573 4.96792 9.03538 4.93807C9.06504 4.90823 9.10244 4.88768 9.14317 4.87885L9.81585 4.72556L9.14293 4.57219C9.10225 4.56334 9.0649 4.54278 9.03529 4.51295C9.00568 4.48312 8.98505 4.44526 8.97584 4.40385Z" fill="black"/>
<path id="Vector_4" d="M5.73815 3.14697C5.78668 3.3416 5.72118 3.55803 5.55767 3.8C5.09002 4.4916 4.1959 5.35976 3.71199 6.33719C2.97892 7.81802 3.49279 9.33009 4.0006 9.94846C4.0006 9.94846 2.04839 8.64785 3.02218 6.42058C3.22936 5.94631 3.65868 5.38425 4.4826 4.65547C4.76579 4.40495 5.11599 4.09487 5.40763 3.76225C5.58269 3.56266 5.70046 3.36202 5.73815 3.14697Z" fill="black"/>
</g>
</svg>
