<svg width="12" height="16" viewBox="0 0 12 16" fill="none" xmlns="http://www.w3.org/2000/svg">
<path d="M6.12928 0C3.25653 0 0.919342 2.33716 0.919342 5.20994V8.01959C0.919342 8.95628 1.16797 9.76744 1.6025 10.5278C1.75444 10.4925 4.43919 10.5278 4.43919 10.5278V8.85563C3.16303 8.22884 2.28244 6.91569 2.28244 5.40056L2.28312 4.85162C2.28331 4.70822 2.34912 4.57278 2.46175 4.484L2.69134 4.30309C4.80347 2.63884 7.80016 2.72191 9.81678 4.50066C9.91572 4.58791 9.97328 4.71281 9.9754 4.84472C9.97569 4.86266 9.97597 5.15669 9.97615 5.40022C9.97615 6.91559 9.09556 8.22878 7.81941 8.85559V10.5278H10.6561C11.0906 9.76744 11.3392 8.95631 11.3392 8.01959V5.20994C11.3392 2.33716 9.00203 0 6.12928 0V0Z" fill="#1E5E5E"/>
<path d="M6.88187 10.5251V9.17325C6.6384 9.22175 6.38677 9.24737 6.12927 9.24737C5.87177 9.24737 5.62015 9.22175 5.37668 9.17325V10.5251H6.88187Z" fill="#1E5E5E"/>
<path d="M9.03863 5.40053C9.03863 5.40056 9.0385 5.22272 9.03835 5.07018C7.36591 3.72181 4.97344 3.6985 3.2716 5.03947L3.22035 5.07984L3.21994 5.40112C3.21994 7.00475 4.52507 8.30987 6.12928 8.30987C7.7335 8.30987 9.03863 7.00475 9.03863 5.40053Z" fill="#1E5E5E"/>
<path d="M10.1821 11.4791C10.1812 11.4791 10.1802 11.4791 10.1793 11.4791L7.99893 11.4664L9.48587 16H10.7537C11.0766 16 11.3392 15.7374 11.3392 15.4146V12.6363C11.3392 11.9982 10.8201 11.4791 10.1821 11.4791Z" fill="#1E5E5E"/>
<path d="M4.25962 11.4664L2.07922 11.4791C2.07831 11.4791 2.0774 11.4791 2.0765 11.4791C1.43847 11.4791 0.919373 11.9982 0.919373 12.6363V15.4145C0.919373 15.7373 1.182 16 1.50481 16H2.77269L4.25962 11.4664Z" fill="#1E5E5E"/>
<path d="M8.49921 16L7.01106 11.4626H5.24749L3.75934 16H8.49921Z" fill="#1E5E5E"/>
</svg>
