<svg width="22" height="22" viewBox="0 0 22 22" fill="none" xmlns="http://www.w3.org/2000/svg">
<path d="M3.0931 6.10714C3.0931 3.73757 5.11264 1.80952 7.59467 1.80952H16.25C15.9382 0.768143 14.9441 0 13.7547 0H2.85617C1.41851 0 0.25 1.11557 0.25 2.4881V16.5119C0.25 17.8844 1.41851 19 2.85617 19H3.0931V6.10714Z" fill="#1E5E5E"/>
<path d="M18.6618 4H7.83824C6.41047 4 5.25 5.1097 5.25 6.475V19.525C5.25 20.8903 6.41047 22 7.83824 22H18.6618C20.0895 22 21.25 20.8903 21.25 19.525V6.475C21.25 5.1097 20.0895 4 18.6618 4ZM16.7794 19.3H9.72059C9.33094 19.3 9.01471 18.9976 9.01471 18.625C9.01471 18.2524 9.33094 17.95 9.72059 17.95H16.7794C17.1691 17.95 17.4853 18.2524 17.4853 18.625C17.4853 18.9976 17.1691 19.3 16.7794 19.3ZM16.7794 15.7H9.72059C9.33094 15.7 9.01471 15.3976 9.01471 15.025C9.01471 14.6524 9.33094 14.35 9.72059 14.35H16.7794C17.1691 14.35 17.4853 14.6524 17.4853 15.025C17.4853 15.3976 17.1691 15.7 16.7794 15.7ZM16.7794 12.55H9.72059C9.33094 12.55 9.01471 12.2476 9.01471 11.875C9.01471 11.5024 9.33094 11.2 9.72059 11.2H16.7794C17.1691 11.2 17.4853 11.5024 17.4853 11.875C17.4853 12.2476 17.1691 12.55 16.7794 12.55ZM16.7794 8.95H9.72059C9.33094 8.95 9.01471 8.6476 9.01471 8.275C9.01471 7.9024 9.33094 7.6 9.72059 7.6H16.7794C17.1691 7.6 17.4853 7.9024 17.4853 8.275C17.4853 8.6476 17.1691 8.95 16.7794 8.95Z" fill="#1E5E5E"/>
</svg>
