<svg width="41" height="41" viewBox="0 0 41 41" fill="none" xmlns="http://www.w3.org/2000/svg">
<path d="M27.6323 12.4438H13.3675C13.1159 12.4434 12.8853 12.5839 12.7703 12.8078C12.6537 13.0346 12.6741 13.3078 12.8231 13.5149L18.0491 20.8768C18.0508 20.8793 18.0527 20.8817 18.0545 20.8843C18.2444 21.1406 18.347 21.4511 18.3476 21.7702V27.7723C18.3465 27.9501 18.4163 28.1208 18.5417 28.2469C18.667 28.373 18.8373 28.4438 19.015 28.4438C19.1054 28.4438 19.1947 28.4257 19.2782 28.3911L22.2148 27.2713C22.478 27.191 22.6526 26.9428 22.6526 26.6438V21.7702C22.6531 21.4512 22.7559 21.1406 22.9456 20.8843C22.9474 20.8817 22.9493 20.8793 22.951 20.8768L28.1769 13.5146C28.3259 13.3076 28.3463 13.0346 28.2297 12.8078C28.1147 12.5839 27.8841 12.4434 27.6323 12.4438ZM22.2908 20.4031C21.9989 20.7992 21.8411 21.2781 21.8401 21.7702V26.5451L19.1599 27.567V21.7702C19.1589 21.2781 19.0011 20.7992 18.709 20.4031L13.6354 13.2561H27.3645L22.2908 20.4031Z" fill="black"/>
</svg>
