<svg width="17" height="16" viewBox="0 0 17 16" fill="none" xmlns="http://www.w3.org/2000/svg">
<path d="M7.51459 1.57218C7.44521 0.742804 6.81678 0.0881164 6.02115 0.0328039C5.5424 -8.6017e-06 4.88521 -0.0156336 3.9849 0.0224914C3.08459 0.0606164 2.42521 0.132179 1.94178 0.205304C1.14146 0.328741 0.458026 1.01249 0.334588 1.81249C0.261463 2.29593 0.191776 2.95562 0.151776 3.85562C0.111776 4.75562 0.128651 5.4128 0.162088 5.89187C0.217713 6.68749 0.872088 7.31593 1.70146 7.3853C2.20146 7.42593 2.88396 7.45468 3.8199 7.45187C4.75584 7.44905 5.44021 7.41655 5.93896 7.37155C6.34132 7.33575 6.71828 7.15964 7.00391 6.874C7.28955 6.58837 7.46566 6.21141 7.50146 5.80905C7.54646 5.31062 7.57928 4.62624 7.58178 3.68999C7.58428 2.75374 7.55521 2.07062 7.51459 1.57218Z" fill="#1E5E5E"/>
<path d="M15.924 1.8125C15.8005 1.0125 15.1168 0.328753 14.3168 0.205316C13.8333 0.132191 13.1737 0.0625032 12.2737 0.0225032C11.3737 -0.0174968 10.7165 -0.000621784 10.2374 0.0328157C9.44178 0.0881282 8.81334 0.742816 8.74397 1.57219C8.70334 2.07219 8.67459 2.75469 8.67741 3.69063C8.68022 4.62657 8.71272 5.31094 8.75772 5.80969C8.79346 6.21207 8.96956 6.58906 9.2552 6.87471C9.54084 7.16035 9.91784 7.33645 10.3202 7.37219C10.8202 7.41719 11.503 7.45 12.4393 7.4525C13.3755 7.455 14.0593 7.42657 14.5577 7.38594C15.3868 7.31657 16.0415 6.68782 16.0971 5.8925C16.1305 5.41344 16.1455 4.75657 16.1074 3.85625C16.0693 2.95594 15.9971 2.29594 15.924 1.8125Z" fill="#1E5E5E"/>
<path d="M7.50083 10.1903C7.46509 9.78795 7.28899 9.41096 7.00334 9.12531C6.7177 8.83967 6.3407 8.66357 5.93833 8.62783C5.43833 8.58283 4.75551 8.55002 3.81926 8.54752C2.88301 8.54502 2.19926 8.57345 1.70083 8.61408C0.872389 8.68408 0.217389 9.31252 0.162076 10.1081C0.129264 10.5872 0.113639 11.2441 0.151764 12.1444C0.189889 13.0447 0.261451 13.7041 0.334576 14.1875C0.458014 14.9875 1.14176 15.6713 1.94176 15.7947C2.42426 15.8678 3.08395 15.9385 3.98395 15.9775C4.88395 16.0166 5.54114 16.0006 6.0202 15.9672C6.8152 15.9119 7.44426 15.2569 7.51364 14.4278C7.55426 13.9294 7.58301 13.2453 7.5802 12.3094C7.57739 11.3735 7.54583 10.6875 7.50083 10.1903Z" fill="#1E5E5E"/>
<path d="M16.098 10.1081C16.0427 9.31313 15.3877 8.68407 14.5587 8.6147C14.0602 8.57407 13.3762 8.54532 12.4402 8.54813C11.5043 8.55095 10.8196 8.58344 10.3212 8.62844C9.91878 8.66418 9.54178 8.84028 9.25614 9.12593C8.9705 9.41157 8.7944 9.78857 8.75866 10.1909C8.71366 10.6909 8.68084 11.3738 8.67834 12.31C8.67584 13.2463 8.70428 13.93 8.74491 14.4284C8.81428 15.2575 9.44334 15.9125 10.2383 15.9678C10.7174 16.0013 11.3743 16.0163 12.2746 15.9781C13.1749 15.94 13.8343 15.8684 14.3168 15.7953C15.118 15.6719 15.8015 14.9881 15.9249 14.1872C15.998 13.7047 16.0687 13.045 16.1077 12.145C16.1468 11.245 16.1293 10.5872 16.098 10.1081Z" fill="#1E5E5E"/>
</svg>
