<svg width="29" height="28" viewBox="0 0 29 28" fill="none" xmlns="http://www.w3.org/2000/svg">
<g id="BottomBar/Photo_Icon">
<g id="Group">
<g id="Group_2">
<g id="Group_3">
<path id="Vector" d="M19.8912 9.07281C21.3922 9.07281 22.7271 10.0337 23.2118 11.4644L23.2446 11.5722C23.359 11.9509 23.4068 12.2697 23.4068 12.5884V18.9802L25.6812 11.3884C25.9737 10.2719 25.3071 9.11406 24.1887 8.80562L9.69226 4.92347C9.51132 4.8766 9.33038 4.8541 9.15226 4.8541C8.21852 4.8541 7.3654 5.47378 7.12634 6.3869L6.28166 9.07281H19.8912Z" fill="#1E5E5E"/>
</g>
<path id="Vector_2" d="M17.313 13.9165C16.279 13.9165 15.438 14.7575 15.438 15.7915C15.438 16.8256 16.279 17.6665 17.313 17.6665C18.3471 17.6665 19.188 16.8256 19.188 15.7915C19.188 14.7575 18.3471 13.9165 17.313 13.9165Z" fill="#1E5E5E"/>
</g>
<path id="Vector_3" d="M5.59438 10.479H19.6568C20.9486 10.479 22.0005 11.5309 22.0005 12.8227V23.1351C22.0005 24.427 20.9486 25.4789 19.6568 25.4789H5.59438C4.30251 25.4789 3.25065 24.427 3.25065 23.1351V12.8227C3.25065 11.5309 4.30251 10.479 5.59438 10.479ZM19.6568 12.354H5.59438C5.33563 12.354 5.12563 12.564 5.12563 12.8227V19.478L8.08717 16.0224C8.40123 15.654 8.85591 15.4571 9.34435 15.4458C9.82997 15.4486 10.2856 15.6643 10.5968 16.0374L14.0787 20.2167L15.213 19.0852C15.8543 18.4439 16.8977 18.4439 17.538 19.0852L20.1255 21.6717V12.8227C20.1255 12.564 19.9155 12.354 19.6568 12.354Z" fill="#1E5E5E"/>
</g>
</g>
</svg>
