<svg width="24" height="24" viewBox="0 0 24 24" fill="none" xmlns="http://www.w3.org/2000/svg">
<path d="M14.2145 15.3402C14.7923 14.7678 15.151 13.9741 15.151 13.0979C15.151 11.358 13.7375 9.94238 12 9.94238C10.2625 9.94238 8.84892 11.358 8.84892 13.0979C8.84892 13.9741 9.20767 14.7678 9.78545 15.3402C7.78543 16.2025 6.38147 18.1955 6.38147 20.5108C6.38147 22.2508 7.795 23.6664 9.53252 23.6664H14.4674C16.2048 23.6664 17.6184 22.2508 17.6184 20.5108C17.6185 18.1955 16.2146 16.2025 14.2145 15.3402Z" fill="#1E5E5E"/>
<path d="M9.5704 4.71249L9.61192 6.28975C9.61753 6.50242 9.72157 6.70044 9.89347 6.82554C10.0654 6.95054 10.2856 6.98851 10.4893 6.92809L12 6.48024L13.5106 6.92809C13.5743 6.94698 13.6397 6.95625 13.7046 6.95625C13.8474 6.95625 13.9884 6.91148 14.1065 6.82554C14.2784 6.70044 14.3824 6.50242 14.3881 6.28975L14.4296 4.71249L15.3218 3.41212C15.4421 3.23674 15.4741 3.0153 15.4085 2.81294C15.3428 2.61053 15.1869 2.45025 14.9866 2.37919L13.5016 1.85226L12.5423 0.600721C12.4129 0.431951 12.2125 0.333008 12 0.333008C11.7875 0.333008 11.5871 0.431951 11.4577 0.600721L10.4985 1.85226L9.01341 2.37919C8.81312 2.45025 8.65721 2.61053 8.59154 2.81294C8.52592 3.0153 8.55796 3.23674 8.67827 3.41212L9.5704 4.71249Z" fill="#1E5E5E"/>
<path d="M7.18364 7.05513C7.11797 6.85272 6.96207 6.69244 6.76177 6.62138L5.27678 6.09444L4.31752 4.84291C4.18813 4.67414 3.98775 4.5752 3.77524 4.5752C3.56274 4.5752 3.36235 4.67414 3.23297 4.84291L2.27371 6.09444L0.788667 6.62138C0.588374 6.69244 0.432469 6.85272 0.366844 7.05513C0.301174 7.25749 0.333212 7.47892 0.453524 7.65431L1.34566 8.95468L1.38718 10.5319C1.39278 10.7446 1.49683 10.9426 1.66873 11.0676C1.84063 11.1927 2.06079 11.2307 2.26459 11.1702L3.77529 10.7224L5.28594 11.1702C5.34965 11.1891 5.415 11.1984 5.47994 11.1984C5.62268 11.1984 5.76368 11.1536 5.88181 11.0676C6.05371 10.9426 6.15775 10.7446 6.16336 10.5319L6.20487 8.95468L7.09701 7.65431C7.21728 7.47892 7.24931 7.25749 7.18364 7.05513Z" fill="#1E5E5E"/>
<path d="M23.6332 7.05513C23.5676 6.85272 23.4117 6.69244 23.2114 6.62138L21.7263 6.09444L20.7671 4.84291C20.6377 4.67414 20.4373 4.5752 20.2248 4.5752C20.0123 4.5752 19.8119 4.67414 19.6825 4.84291L18.7233 6.09444L17.2383 6.62138C17.038 6.69244 16.8821 6.85272 16.8164 7.05513C16.7508 7.25749 16.7828 7.47892 16.9031 7.65431L17.7953 8.95468L17.8368 10.5319C17.8424 10.7446 17.9464 10.9426 18.1183 11.0676C18.2365 11.1536 18.3774 11.1984 18.5202 11.1984C18.5851 11.1984 18.6505 11.1891 18.7142 11.1702L20.2248 10.7224L21.7355 11.1702C21.9393 11.2307 22.1595 11.1927 22.3314 11.0676C22.5033 10.9426 22.6073 10.7446 22.613 10.5319L22.6545 8.95468L23.5466 7.65431C23.6668 7.47892 23.6988 7.25749 23.6332 7.05513Z" fill="#1E5E5E"/>
</svg>
