<svg width="29" height="28" viewBox="0 0 29 28" fill="none" xmlns="http://www.w3.org/2000/svg">
<path d="M25.4244 20.9983H16.4147C15.958 20.3665 15.2546 19.9946 14.5 19.9946C13.7454 19.9946 13.042 20.3665 12.5853 20.9983H3.57563C2.70714 20.9983 2 21.7487 2 22.6704C2 23.592 2.70714 24.3425 3.57563 24.3425H25.4244C26.2929 24.3425 27 23.592 27 22.6704C27 21.7487 26.2929 20.9983 25.4244 20.9983Z" fill="#1E5E5E"/>
<path d="M15.3789 11.6344C16.8067 11.6344 17.9688 12.7965 17.9688 14.2243C17.9688 14.4095 18.1191 14.5598 18.3043 14.5598C18.4895 14.5598 18.6398 14.4095 18.6398 14.2243C18.6398 12.7965 19.8019 11.6344 21.2297 11.6344C21.4149 11.6344 21.5652 11.4841 21.5652 11.299C21.5652 11.1138 21.4149 10.9635 21.2297 10.9635C19.8019 10.9635 18.6398 9.80137 18.6398 8.37357C18.6398 8.18838 18.4895 8.03809 18.3043 8.03809C18.1191 8.03809 17.9688 8.18838 17.9688 8.37357C17.9688 9.80137 16.8067 10.9635 15.3789 10.9635C15.1938 10.9635 15.0435 11.1138 15.0435 11.299C15.0435 11.4841 15.1938 11.6344 15.3789 11.6344Z" fill="#1E5E5E"/>
<path d="M8.8013 7.28654C9.99113 7.28654 10.9596 8.44864 10.9596 9.87644C10.9596 10.0616 11.0848 10.2119 11.2391 10.2119C11.3934 10.2119 11.5187 10.0616 11.5187 9.87644C11.5187 8.44864 12.4871 7.28654 13.6769 7.28654C13.8313 7.28654 13.9565 7.13624 13.9565 6.95106C13.9565 6.76587 13.8313 6.61557 13.6769 6.61557C12.4871 6.61557 11.5187 5.45347 11.5187 4.02567C11.5187 3.84048 11.3934 3.69019 11.2391 3.69019C11.0848 3.69019 10.9596 3.84048 10.9596 4.02567C10.9596 5.45347 9.99113 6.61557 8.8013 6.61557C8.64697 6.61557 8.52173 6.76587 8.52173 6.95106C8.52173 7.13624 8.64697 7.28654 8.8013 7.28654Z" fill="#1E5E5E"/>
<path d="M16.1308 17.8207C16.3815 17.7116 16.5736 17.6347 16.6399 17.6087C18.0953 17.0388 20.5149 16.3572 23.7391 16.375L23.0879 14.7194C23.0439 14.6074 22.8836 14.5401 22.7285 14.565C19.11 15.1381 17.0909 16.7698 16.1304 17.8207H16.1308Z" fill="#1E5E5E"/>
<path d="M6.27268 14.5649C6.11704 14.5402 5.95691 14.6077 5.9129 14.7197L5.26099 16.3803C8.72837 16.358 11.2778 17.1257 12.8697 17.8207C11.9048 16.7665 9.8839 15.1379 6.27227 14.5649H6.27268Z" fill="#1E5E5E"/>
<path d="M13.9564 19.2964C12.6258 18.3379 9.44037 16.5394 4.47819 16.7508C4.30792 16.7581 4.17383 16.8854 4.17383 17.0396V19.9945H12.7722C13.1042 19.6779 13.5116 19.4426 13.9564 19.2964Z" fill="#1E5E5E"/>
<path d="M15.0439 19.2983C15.4873 19.4445 15.8927 19.6794 16.2233 19.9945H24.8261V17.0397C24.8261 16.8854 24.6923 16.7581 24.5215 16.7508C19.5727 16.5383 16.3677 18.3518 15.0435 19.2983H15.0439Z" fill="#1E5E5E"/>
</svg>
