<svg width="17" height="16" viewBox="0 0 17 16" fill="none" xmlns="http://www.w3.org/2000/svg">
<path d="M14.1605 1.68753H14.4418V1.96878C14.4418 2.22766 14.6516 2.43753 14.9105 2.43753C15.1694 2.43753 15.3793 2.22766 15.3793 1.96878V1.68753H15.6605C15.9194 1.68753 16.1293 1.47766 16.1293 1.21878C16.1293 0.959906 15.9194 0.750031 15.6605 0.750031H15.3793V0.468781C15.3793 0.209906 15.1694 3.05176e-05 14.9105 3.05176e-05C14.6516 3.05176e-05 14.4418 0.209906 14.4418 0.468781V0.750031H14.1605C13.9016 0.750031 13.6918 0.959906 13.6918 1.21878C13.6918 1.47766 13.9016 1.68753 14.1605 1.68753Z" fill="#1E5E5E"/>
<path d="M9.12927 2.21878H9.41052V2.50003C9.41052 2.75891 9.6204 2.96878 9.87927 2.96878C10.1381 2.96878 10.348 2.75891 10.348 2.50003V2.21878H10.6293C10.8881 2.21878 11.098 2.00891 11.098 1.75003C11.098 1.49116 10.8881 1.28128 10.6293 1.28128H10.348V1.00003C10.348 0.741156 10.1381 0.531281 9.87927 0.531281C9.6204 0.531281 9.41052 0.741156 9.41052 1.00003V1.28128H9.12927C8.8704 1.28128 8.66052 1.49116 8.66052 1.75003C8.66052 2.00891 8.8704 2.21878 9.12927 2.21878Z" fill="#1E5E5E"/>
<path d="M13.9105 7.00003C13.9105 7.25891 14.1204 7.46878 14.3793 7.46878C14.6381 7.46878 14.848 7.25891 14.848 7.00003V6.71878H15.1293C15.3881 6.71878 15.598 6.50891 15.598 6.25003C15.598 5.99116 15.3881 5.78128 15.1293 5.78128H14.848V5.50003C14.848 5.24116 14.6381 5.03128 14.3793 5.03128C14.1204 5.03128 13.9105 5.24116 13.9105 5.50003V5.78128H13.6293C13.3704 5.78128 13.1605 5.99116 13.1605 6.25003C13.1605 6.50891 13.3704 6.71878 13.6293 6.71878H13.9105V7.00003Z" fill="#1E5E5E"/>
<path d="M15.6605 10.2813H15.3793V10C15.3793 9.74116 15.1694 9.53128 14.9105 9.53128C14.6516 9.53128 14.4418 9.74116 14.4418 10V10.2813H14.1605C13.9016 10.2813 13.6918 10.4912 13.6918 10.75C13.6918 11.0089 13.9016 11.2188 14.1605 11.2188H14.4418V11.5C14.4418 11.7589 14.6516 11.9688 14.9105 11.9688C15.1694 11.9688 15.3793 11.7589 15.3793 11.5V11.2188H15.6605C15.9194 11.2188 16.1293 11.0089 16.1293 10.75C16.1293 10.4912 15.9194 10.2813 15.6605 10.2813Z" fill="#1E5E5E"/>
<path d="M4.62927 1.68753H4.91052V1.96878C4.91052 2.22766 5.1204 2.43753 5.37927 2.43753C5.63815 2.43753 5.84802 2.22766 5.84802 1.96878V1.68753H6.12927C6.38815 1.68753 6.59802 1.47766 6.59802 1.21878C6.59802 0.959906 6.38815 0.750031 6.12927 0.750031H5.84802V0.468781C5.84802 0.209906 5.63815 3.05176e-05 5.37927 3.05176e-05C5.1204 3.05176e-05 4.91052 0.209906 4.91052 0.468781V0.750031H4.62927C4.3704 0.750031 4.16052 0.959906 4.16052 1.21878C4.16052 1.47766 4.3704 1.68753 4.62927 1.68753Z" fill="#1E5E5E"/>
<path d="M2.89673 3.65701L4.64673 4.65701C4.87048 4.78492 5.15726 4.70839 5.28629 4.48261C5.41473 4.25783 5.33663 3.97151 5.11188 3.84304L3.36188 2.84304C3.13716 2.71464 2.85079 2.7927 2.72232 3.01745C2.59385 3.24226 2.67195 3.52858 2.89673 3.65701Z" fill="#1E5E5E"/>
<path d="M1.87867 6.46884C1.92042 6.46884 1.74217 6.48955 3.93739 6.21515C4.1943 6.18305 4.37651 5.94877 4.34436 5.6919C4.31226 5.43499 4.07792 5.25246 3.82111 5.28493L1.82111 5.53493C1.5642 5.56702 1.38198 5.8013 1.41414 6.05818C1.44377 6.2953 1.64567 6.46884 1.87867 6.46884Z" fill="#1E5E5E"/>
<path d="M12.2862 11.0175C12.1578 10.7927 11.8714 10.7146 11.6467 10.8431C11.4219 10.9715 11.3438 11.2578 11.4723 11.4826L12.4723 13.2326C12.5588 13.384 12.717 13.4689 12.8797 13.4689C13.2334 13.4689 13.4666 13.0832 13.2862 12.7675L12.2862 11.0175Z" fill="#1E5E5E"/>
<path d="M10.4374 11.7849C10.1805 11.7527 9.94624 11.935 9.91415 12.1919L9.66415 14.1919C9.62924 14.4708 9.84646 14.7188 10.1298 14.7188C10.3628 14.7188 10.5647 14.5453 10.5944 14.3081L10.8444 12.3081C10.8765 12.0513 10.6943 11.817 10.4374 11.7849Z" fill="#1E5E5E"/>
<path d="M6.86765 11.3255L7.54136 10.5648C7.52443 10.491 7.54611 10.6181 7.2679 8.86142C5.5118 8.58326 5.63683 8.60461 5.56443 8.58801L4.8038 9.26167L6.86765 11.3255Z" fill="#1E5E5E"/>
<path d="M8.44862 10.3233C8.51371 10.7342 9.04393 10.8621 9.2895 10.5273L10.6167 8.71874H12.6293C13.0098 8.71877 13.2321 8.28749 13.0107 7.97755L11.8913 6.41036L12.5131 4.19418C12.6113 3.84402 12.2886 3.51708 11.9351 3.61624L9.71893 4.23802L8.15175 3.11858C7.84212 2.89749 7.41053 3.11915 7.41053 3.50002V5.51258L5.60197 6.83977C5.26675 7.08571 5.39546 7.61561 5.80593 7.68065C6.36453 7.76911 7.52896 7.95355 8.08731 8.04196L8.44862 10.3233Z" fill="#1E5E5E"/>
<path d="M4.10072 9.88437L0.741187 12.8598C0.369374 13.1852 0.146687 13.6551 0.13028 14.1489C0.0966554 15.1599 0.908655 16 1.922 16C2.43684 16 2.93119 15.7748 3.26772 15.3902L6.24494 12.0286L4.10072 9.88437Z" fill="#1E5E5E"/>
</svg>
