<svg width="80" height="90" viewBox="0 0 80 90" fill="none" xmlns="http://www.w3.org/2000/svg">
<g opacity="0.1" clip-path="url(#clip0_1359_5424)">
<path d="M28.6216 77.8345C24.6242 73.5319 21.4279 68.8992 19.1215 64.0647C16.1854 57.9106 14.6966 51.4369 14.6966 44.8236C14.6966 43.3248 14.7771 41.8336 14.9295 40.3512C6.80453 38.755 0.439665 39.9652 0.439665 39.9652C0.439665 39.9652 -3.29832 59.6188 11.0242 73.9411C19.2665 82.1835 29.2738 84.4439 36.2855 84.8782C34.0023 83.0824 31.3105 80.7287 28.6216 77.8345Z" fill="#2F2D2D"/>
<path d="M89.5604 39.9653C89.5604 39.9653 83.1955 38.7552 75.0706 40.3513C75.223 41.8337 75.3035 43.3248 75.3035 44.8237C75.3035 51.4371 73.8148 57.9106 70.8785 64.0647C68.5721 68.899 65.3757 73.5319 61.3784 77.8345C58.6895 80.7288 55.9978 83.0825 53.7147 84.8783C60.7265 84.4441 70.7335 82.1835 78.9761 73.9412C93.2984 59.6189 89.5604 39.9653 89.5604 39.9653Z" fill="#2F2D2D"/>
<path d="M45 5.1217C45 5.1217 19.97 19.3022 19.97 44.8237C19.97 70.3452 45 84.5256 45 84.5256C45 84.5256 70.03 70.3452 70.03 44.8237C70.03 19.3022 45 5.1217 45 5.1217ZM45 63.029C40.873 58.6541 36.7748 52.4019 36.7748 44.8237C36.7748 37.2454 40.8728 30.9932 45 26.6183C49.127 30.9932 53.2251 37.2454 53.2251 44.8237C53.2251 52.4019 49.127 58.6541 45 63.029Z" fill="#2F2D2D"/>
</g>
<defs>
<clipPath id="clip0_1359_5424">
<rect width="90" height="90" fill="white"/>
</clipPath>
</defs>
</svg>
