<svg width="80" height="90" viewBox="0 0 80 90" fill="none" xmlns="http://www.w3.org/2000/svg">
<g opacity="0.1" clip-path="url(#clip0_1359_9896)">
<path d="M33.9638 73.5294C45.9897 73.5294 56.754 67.3975 63.997 57.7357C58.564 61.4593 52.1978 63.6033 45.3904 63.6033C25.4686 63.6033 9.31927 47.597 9.31927 22.6355C9.31927 36.0923 20.2285 47.0006 33.6834 47.0006C47.1393 47.0006 58.0485 36.0923 58.0485 22.6364C58.0485 12.4112 51.7472 3.66292 42.8193 0.0484677C43.4524 0.0221261 44.0865 0.000488281 44.7262 0.000488281C53.2289 0.000488281 61.1775 2.36277 67.9586 6.46266C67.9567 6.45984 67.9558 6.45701 67.9539 6.45419C81.0024 14.3332 89.7262 28.647 89.7262 44.9995C89.7262 69.8529 69.5786 89.9995 44.7262 89.9995C22.2615 89.9995 3.64359 73.536 0.273735 52.0177C7.21758 64.9204 19.7073 73.5294 33.9638 73.5294Z" fill="#2F2D2D"/>
</g>
<defs>
<clipPath id="clip0_1359_9896">
<rect width="90" height="90" fill="white"/>
</clipPath>
</defs>
</svg>
