<svg width="80" height="90" viewBox="0 0 80 90" fill="none" xmlns="http://www.w3.org/2000/svg">
<g opacity="0.1" clip-path="url(#clip0_1359_6171)">
<path d="M17.2653 18.158C17.5226 17.733 17.9376 17.427 18.4197 17.3067C18.9017 17.1864 19.4118 17.2616 19.8387 17.5158L25.0203 20.6251L34.6039 1.05896C34.7576 0.745053 34.996 0.480361 35.2921 0.294756C35.5883 0.109151 35.9304 0.0100238 36.28 0.00856134C36.6295 0.00709893 36.9724 0.10336 37.2702 0.28648C37.5679 0.4696 37.8085 0.732288 37.9648 1.0449L47.5203 20.1563L52.9615 17.5833C53.3776 17.3847 53.8525 17.347 54.2947 17.4775C54.7369 17.608 55.1153 17.8975 55.3568 18.2902C57.4109 21.6736 58.7703 25.0693 58.7703 28.1251C58.7703 34.0924 56.3997 39.8154 52.1802 44.035C47.9606 48.2545 42.2376 50.6251 36.2703 50.6251C30.3029 50.6251 24.5799 48.2545 20.3604 44.035C16.1408 39.8154 13.7703 34.0924 13.7703 28.1251C13.7703 25.0313 15.1681 21.5851 17.2653 18.158ZM36.2703 42.6563C38.2594 42.6563 40.167 41.8661 41.5736 40.4596C42.9801 39.0531 43.7703 37.1454 43.7703 35.1563C43.7703 31.014 36.2703 23.4376 36.2703 23.4376C36.2703 23.4376 28.7703 31.014 28.7703 35.1563C28.7703 37.1454 29.5604 39.0531 30.967 40.4596C32.3735 41.8661 34.2811 42.6563 36.2703 42.6563Z" fill="#2F2D2D"/>
<path d="M88.7703 82.5H70.3245C70.1229 82.5 69.9227 82.5324 69.7315 82.5961L47.809 89.9063C47.6178 89.9699 47.4176 90.0024 47.216 90.0023H18.297C18.0507 90.0024 17.8068 89.9538 17.5793 89.8596C17.3518 89.7653 17.145 89.6271 16.9709 89.453L0.551514 73.0313C0.319153 72.7997 0.151604 72.5112 0.0656052 72.1947C-0.0203934 71.8781 -0.0218353 71.5445 0.0614319 71.2272C0.144691 70.9099 0.309746 70.62 0.5401 70.3865C0.770454 70.1529 1.05804 69.9839 1.37417 69.8963C3.24823 69.3778 6.12964 69.3047 10.0203 71.25C13.8849 73.1199 17.4927 75.4796 20.7546 78.2709C21.0987 78.5791 21.5443 78.7497 22.0062 78.75H35.4935C35.7398 78.75 35.9837 78.7015 36.2112 78.6072C36.4388 78.513 36.6455 78.3748 36.8196 78.2006L47.5203 67.5H36.2703C28.2514 67.5 25.9484 61.7845 25.287 58.5C25.2314 58.2275 25.237 57.9461 25.3036 57.676C25.3702 57.406 25.4961 57.1542 25.672 56.9388C25.8479 56.7234 26.0696 56.5499 26.3209 56.4308C26.5722 56.3116 26.8468 56.2499 27.125 56.25H54.7896C54.9429 56.25 55.0956 56.2688 55.2443 56.3058L69.7962 59.9442C69.9449 59.9812 70.0976 60 70.2509 60H88.7703" fill="#2F2D2D"/>
</g>
<defs>
<clipPath id="clip0_1359_6171">
<rect width="90" height="90" fill="white"/>
</clipPath>
</defs>
</svg>
