<svg width="40" height="40" viewBox="0 0 40 40" fill="none" xmlns="http://www.w3.org/2000/svg">
<rect width="40" height="40" rx="8" fill="#1E5E5E" fill-opacity="0.1"/>
<g clip-path="url(#clip0_1263_7079)">
<path d="M27.9024 13.5641L27.2357 12.8975C27.1732 12.835 27.0886 12.7998 27 12.7998H18.3334C18.2448 12.7998 18.1602 12.835 18.0977 12.8975L17.431 13.5641C17.3685 13.6266 17.3334 13.7113 17.3334 13.7998V15.7998C17.3334 15.8883 17.3685 15.973 17.431 16.0355L18.0977 16.7022C18.1602 16.7647 18.2448 16.7998 18.3334 16.7998H27C27.0886 16.7998 27.1732 16.7647 27.2357 16.7022L27.9024 16.0355C27.9649 15.973 28 15.8884 28 15.7998V13.7998C28 13.7113 27.9649 13.6266 27.9024 13.5641Z" fill="#1E5E5E"/>
<path d="M15.2357 12.8975C15.1732 12.835 15.0885 12.7998 15 12.7998H13C12.9115 12.7998 12.8268 12.835 12.7643 12.8975L12.0977 13.5641C12.0352 13.6266 12 13.7113 12 13.7998V15.7998C12 15.8883 12.0352 15.973 12.0977 16.0355L12.7643 16.7022C12.8268 16.7647 12.9115 16.7998 13 16.7998H15C15.0885 16.7998 15.1732 16.7647 15.2357 16.7022L15.9023 16.0355C15.9648 15.973 16 15.8884 16 15.7998V13.7998C16 13.7113 15.9648 13.6266 15.9023 13.5641L15.2357 12.8975Z" fill="#1E5E5E"/>
<path d="M27.2357 18.231C27.1732 18.1685 27.0886 18.1333 27 18.1333H18.3334C18.2448 18.1333 18.1602 18.1685 18.0977 18.231L17.431 18.8976C17.3685 18.9601 17.3334 19.0448 17.3334 19.1333V21.1333C17.3334 21.2218 17.3685 21.3065 17.431 21.369L18.0977 22.0356C18.1602 22.0981 18.2448 22.1333 18.3334 22.1333H27C27.0886 22.1333 27.1732 22.0981 27.2357 22.0356L27.9024 21.369C27.9649 21.3065 28 21.2218 28 21.1333V19.1333C28 19.0448 27.9649 18.9601 27.9024 18.8976L27.2357 18.231Z" fill="#1E5E5E"/>
<path d="M15.2357 18.231C15.1732 18.1685 15.0885 18.1333 15 18.1333H13C12.9115 18.1333 12.8268 18.1685 12.7643 18.231L12.0977 18.8976C12.0352 18.9601 12 19.0448 12 19.1333V21.1333C12 21.2218 12.0352 21.3065 12.0977 21.369L12.7643 22.0356C12.8268 22.0981 12.9115 22.1333 13 22.1333H15C15.0885 22.1333 15.1732 22.0981 15.2357 22.0356L15.9023 21.369C15.9648 21.3065 16 21.2218 16 21.1333V19.1333C16 19.0448 15.9648 18.9601 15.9023 18.8976L15.2357 18.231Z" fill="#1E5E5E"/>
<path d="M27.2357 23.5645C27.1732 23.502 27.0886 23.4668 27 23.4668H18.3334C18.2448 23.4668 18.1602 23.502 18.0977 23.5645L17.431 24.2311C17.3685 24.2936 17.3334 24.3783 17.3334 24.4668V26.4668C17.3334 26.5553 17.3685 26.64 17.431 26.7025L18.0977 27.3691C18.1602 27.4316 18.2448 27.4668 18.3334 27.4668H27C27.0886 27.4668 27.1732 27.4316 27.2357 27.3691L27.9024 26.7025C27.9649 26.64 28 26.5553 28 26.4668V24.4668C28 24.3783 27.9649 24.2936 27.9024 24.2311L27.2357 23.5645Z" fill="#1E5E5E"/>
<path d="M15.2357 23.5645C15.1732 23.502 15.0885 23.4668 15 23.4668H13C12.9115 23.4668 12.8268 23.502 12.7643 23.5645L12.0977 24.2311C12.0352 24.2936 12 24.3783 12 24.4668V26.4668C12 26.5553 12.0352 26.64 12.0977 26.7025L12.7643 27.3691C12.8268 27.4316 12.9115 27.4668 13 27.4668H15C15.0885 27.4668 15.1732 27.4316 15.2357 27.3691L15.9023 26.7025C15.9648 26.64 16 26.5553 16 26.4668V24.4668C16 24.3783 15.9648 24.2936 15.9023 24.2311L15.2357 23.5645Z" fill="#1E5E5E"/>
</g>
<defs>
<clipPath id="clip0_1263_7079">
<rect width="16" height="16" fill="white" transform="translate(12 12)"/>
</clipPath>
</defs>
</svg>
