<svg width="40" height="40" viewBox="0 0 40 40" fill="none" xmlns="http://www.w3.org/2000/svg">
<rect width="40" height="40" rx="8" fill="#1E5E5E" fill-opacity="0.1"/>
<path d="M20 22.8356C21.3604 22.8356 22.4632 21.7328 22.4632 20.3724C22.4632 19.012 21.3604 17.9092 20 17.9092C18.6396 17.9092 17.5367 19.012 17.5367 20.3724C17.5367 21.7328 18.6396 22.8356 20 22.8356Z" fill="#1E5E5E"/>
<path d="M27.7546 19.6907C25.8612 17.4026 22.995 15.2002 20 15.2002C17.0044 15.2002 14.1376 17.4042 12.2455 19.6907C11.9182 20.086 11.9182 20.6599 12.2455 21.0553C12.7212 21.6301 13.7185 22.7398 15.0505 23.7094C18.4051 26.1515 21.5876 26.1569 24.9496 23.7094C26.2816 22.7398 27.2789 21.6301 27.7546 21.0553C28.0809 20.6607 28.0826 20.0873 27.7546 19.6907V19.6907ZM20 16.9245C21.9016 16.9245 23.4486 18.4714 23.4486 20.373C23.4486 22.2746 21.9016 23.8215 20 23.8215C18.0984 23.8215 16.5515 22.2746 16.5515 20.373C16.5515 18.4714 18.0984 16.9245 20 16.9245Z" fill="#1E5E5E"/>
</svg>
