<svg width="40" height="40" viewBox="0 0 40 40" fill="none" xmlns="http://www.w3.org/2000/svg">
<rect width="40" height="40" rx="8" fill="#1E5E5E" fill-opacity="0.1"/>
<path d="M25.7143 12H14.2857C13.6795 12 13.0981 12.2408 12.6695 12.6695C12.2408 13.0981 12 13.6795 12 14.2857V25.7143C12 26.3205 12.2408 26.9019 12.6695 27.3305C13.0981 27.7592 13.6795 28 14.2857 28H25.7143C26.3205 28 26.9019 27.7592 27.3305 27.3305C27.7592 26.9019 28 26.3205 28 25.7143V14.2857C28 13.6795 27.7592 13.0981 27.3305 12.6695C26.9019 12.2408 26.3205 12 25.7143 12ZM24.5714 24C24.5714 24.1516 24.5112 24.2969 24.4041 24.4041C24.2969 24.5112 24.1516 24.5714 24 24.5714H21.7143C21.5627 24.5714 21.4174 24.5112 21.3102 24.4041C21.2031 24.2969 21.1429 24.1516 21.1429 24C21.1429 23.8484 21.2031 23.7031 21.3102 23.5959C21.4174 23.4888 21.5627 23.4286 21.7143 23.4286H22.6206L16.5714 17.3794V18.2857C16.5714 18.4373 16.5112 18.5826 16.4041 18.6898C16.2969 18.7969 16.1516 18.8571 16 18.8571C15.8484 18.8571 15.7031 18.7969 15.5959 18.6898C15.4888 18.5826 15.4286 18.4373 15.4286 18.2857V16C15.4286 15.8484 15.4888 15.7031 15.5959 15.5959C15.7031 15.4888 15.8484 15.4286 16 15.4286H18.2857C18.4373 15.4286 18.5826 15.4888 18.6898 15.5959C18.7969 15.7031 18.8571 15.8484 18.8571 16C18.8571 16.1516 18.7969 16.2969 18.6898 16.4041C18.5826 16.5112 18.4373 16.5714 18.2857 16.5714H17.3794L23.4286 22.6206V21.7143C23.4286 21.5627 23.4888 21.4174 23.5959 21.3102C23.7031 21.2031 23.8484 21.1429 24 21.1429C24.1516 21.1429 24.2969 21.2031 24.4041 21.3102C24.5112 21.4174 24.5714 21.5627 24.5714 21.7143V24Z" fill="#1E5E5E"/>
</svg>
