<svg width="40" height="40" viewBox="0 0 40 40" fill="none" xmlns="http://www.w3.org/2000/svg">
<rect width="40" height="40" rx="8" fill="#1E5E5E" fill-opacity="0.1"/>
<path d="M23.9755 16.6639C24.3832 16.6636 24.7741 16.5015 25.0624 16.2132C25.3507 15.9249 25.5128 15.534 25.5132 15.1263C25.4415 13.0911 22.5092 13.0916 22.4379 15.1263C22.4382 15.534 22.6003 15.9249 22.8886 16.2132C23.1769 16.5015 23.5678 16.6636 23.9755 16.6639Z" fill="#1E5E5E"/>
<path d="M22.8094 21.8736L21.9269 21.0009C21.8809 20.9556 21.852 20.8957 21.8453 20.8314C21.8387 20.7672 21.8545 20.7026 21.8902 20.6488C22.2637 20.0852 22.8063 19.2735 23.1834 18.7078C23.5602 18.2071 23.5794 17.6067 22.9561 17.0284C22.5512 16.8198 21.8725 16.2983 21.4038 16.3268L19.0692 16.2901C18.7503 16.2861 18.442 16.4052 18.2087 16.6226L16.6515 18.082C16.5612 18.1664 16.4889 18.2681 16.4389 18.3811C16.3889 18.4941 16.3623 18.6161 16.3606 18.7396C16.3611 18.9215 16.4151 19.0991 16.5158 19.2506C16.6164 19.402 16.7594 19.5205 16.9269 19.5913C17.0944 19.6622 17.279 19.6822 17.4577 19.649C17.6365 19.6158 17.8016 19.5308 17.9325 19.4045L18.8932 18.4438C18.9386 18.3986 18.9928 18.3632 19.0526 18.3401C19.1124 18.3169 19.1763 18.3065 19.2403 18.3094L19.9199 18.3436C18.8909 19.7982 17.9992 20.745 19.7903 22.1669C20.0339 22.3875 20.5483 22.8417 20.7951 23.0665C20.8612 23.1255 20.9142 23.1978 20.9504 23.2787C20.9866 23.3596 21.0053 23.4473 21.0053 23.5359V25.8509C21.008 26.1266 21.1196 26.3901 21.3159 26.5838C21.5121 26.7775 21.7771 26.8856 22.0528 26.8847C22.3285 26.8837 22.5927 26.7737 22.7876 26.5786C22.9825 26.3835 23.0922 26.1193 23.093 25.8435L23.0685 22.4872C23.068 22.3729 23.0448 22.2598 23.0003 22.1545C22.9558 22.0492 22.8909 21.9537 22.8094 21.8736V21.8736Z" fill="#1E5E5E"/>
<path d="M18.4361 21.3354L17.649 22.3059C17.6211 22.34 17.586 22.3675 17.5463 22.3865C17.5066 22.4055 17.4632 22.4155 17.4192 22.4159H15.5246C15.2587 22.4177 15.0042 22.5246 14.8168 22.7133C14.6294 22.902 14.5242 23.1572 14.5242 23.4231C14.5242 23.6891 14.6294 23.9442 14.8168 24.1329C15.0042 24.3216 15.2587 24.4285 15.5246 24.4303H18.2772C18.3984 24.4304 18.518 24.4024 18.6266 24.3485C18.7352 24.2946 18.8298 24.2164 18.903 24.1198C19.103 23.8558 19.8491 22.8755 19.8491 22.8755C19.81 22.8378 19.5114 22.5774 19.4824 22.548C19.0502 22.2241 18.6932 21.8104 18.4361 21.3354V21.3354Z" fill="#1E5E5E"/>
<path d="M25.8408 19.3456H24.6552C24.5739 19.3458 24.4958 19.3143 24.4376 19.2576C24.2795 19.1042 23.9615 18.7919 23.8044 18.6367C23.7772 18.707 22.8673 20.0666 22.6873 20.3333L23.0099 20.6559C23.2714 20.8831 23.6037 21.3184 23.9951 21.2842L25.8408 21.2842C26.096 21.2815 26.3399 21.1782 26.5195 20.9967C26.6991 20.8152 26.7998 20.5702 26.7998 20.3149C26.7998 20.0596 26.6991 19.8146 26.5195 19.6332C26.3399 19.4517 26.096 19.3484 25.8408 19.3456V19.3456Z" fill="#1E5E5E"/>
<path d="M13.9601 14.2033H14.2786C14.3107 14.2034 14.3426 14.1971 14.3724 14.1849C14.4021 14.1727 14.4292 14.1547 14.4519 14.132C14.4747 14.1092 14.4928 14.0823 14.5051 14.0526C14.5175 14.0228 14.5238 13.991 14.5238 13.9588C14.5238 13.9266 14.5175 13.8948 14.5051 13.8651C14.4928 13.8354 14.4747 13.8084 14.4519 13.7857C14.4292 13.763 14.4021 13.745 14.3724 13.7327C14.3426 13.7205 14.3107 13.7143 14.2786 13.7144H13.9601C13.896 13.7155 13.835 13.7418 13.7901 13.7875C13.7451 13.8332 13.72 13.8947 13.72 13.9588C13.72 14.0229 13.7451 14.0844 13.7901 14.1302C13.835 14.1759 13.896 14.2021 13.9601 14.2033V14.2033Z" fill="#1E5E5E"/>
<path d="M15.4683 14.2575H17.3066C17.3708 14.2565 17.4321 14.2304 17.4772 14.1846C17.5223 14.1389 17.5476 14.0772 17.5476 14.013C17.5476 13.9488 17.5223 13.8871 17.4772 13.8414C17.4321 13.7956 17.3708 13.7695 17.3066 13.7686H15.4683C15.404 13.7695 15.3428 13.7956 15.2977 13.8414C15.2526 13.8871 15.2273 13.9488 15.2273 14.013C15.2273 14.0772 15.2526 14.1389 15.2977 14.1846C15.3428 14.2304 15.404 14.2565 15.4683 14.2575V14.2575Z" fill="#1E5E5E"/>
<path d="M16.069 15.1738C16.0049 15.175 15.9439 15.2012 15.8989 15.2469C15.854 15.2927 15.8289 15.3542 15.8289 15.4183C15.8289 15.4824 15.854 15.5439 15.8989 15.5896C15.9439 15.6354 16.0049 15.6616 16.069 15.6628H16.3873C16.4195 15.6629 16.4514 15.6566 16.4811 15.6444C16.5109 15.6321 16.5379 15.6141 16.5607 15.5914C16.5835 15.5687 16.6016 15.5417 16.6139 15.512C16.6262 15.4823 16.6326 15.4505 16.6326 15.4183C16.6326 15.3861 16.6262 15.3543 16.6139 15.3246C16.6016 15.2948 16.5835 15.2679 16.5607 15.2452C16.5379 15.2224 16.5109 15.2045 16.4811 15.1922C16.4514 15.18 16.4195 15.1737 16.3873 15.1738H16.069Z" fill="#1E5E5E"/>
<path d="M13.0409 15.7164H14.8792C14.9434 15.7155 15.0046 15.6893 15.0497 15.6436C15.0948 15.5978 15.12 15.5362 15.12 15.472C15.12 15.4078 15.0948 15.3461 15.0497 15.3004C15.0046 15.2546 14.9434 15.2285 14.8791 15.2275H13.0409C12.9767 15.2285 12.9155 15.2546 12.8704 15.3004C12.8253 15.3461 12.8 15.4078 12.8 15.472C12.8 15.5362 12.8253 15.5979 12.8704 15.6436C12.9155 15.6893 12.9767 15.7155 13.0409 15.7164V15.7164Z" fill="#1E5E5E"/>
<path d="M13.3594 26.2773H13.0409C12.9778 26.28 12.9182 26.3069 12.8745 26.3524C12.8308 26.398 12.8064 26.4587 12.8064 26.5218C12.8064 26.5849 12.8308 26.6456 12.8745 26.6912C12.9182 26.7367 12.9778 26.7636 13.0409 26.7663H13.3594C13.4236 26.7653 13.4848 26.7391 13.5299 26.6934C13.575 26.6477 13.6003 26.586 13.6003 26.5218C13.6003 26.4576 13.575 26.3959 13.5299 26.3502C13.4848 26.3045 13.4236 26.2783 13.3594 26.2773Z" fill="#1E5E5E"/>
<path d="M16.3873 26.2231H14.5491C14.485 26.2243 14.424 26.2505 14.379 26.2963C14.3341 26.342 14.309 26.4035 14.309 26.4676C14.309 26.5317 14.3341 26.5932 14.379 26.6389C14.424 26.6847 14.485 26.7109 14.5491 26.7121H16.3873C16.4514 26.7109 16.5125 26.6847 16.5574 26.6389C16.6023 26.5932 16.6275 26.5317 16.6275 26.4676C16.6275 26.4035 16.6023 26.342 16.5574 26.2963C16.5125 26.2505 16.4514 26.2243 16.3873 26.2231V26.2231Z" fill="#1E5E5E"/>
<path d="M17.3065 24.8179H16.9881C16.9247 24.82 16.8646 24.8467 16.8205 24.8923C16.7764 24.9379 16.7517 24.9989 16.7517 25.0623C16.7517 25.1258 16.7764 25.1867 16.8205 25.2323C16.8646 25.278 16.9247 25.3046 16.9881 25.3068H17.3065C17.3707 25.3058 17.432 25.2797 17.4771 25.2339C17.5221 25.1882 17.5474 25.1265 17.5474 25.0623C17.5474 24.9981 17.5221 24.9365 17.4771 24.8907C17.432 24.845 17.3707 24.8188 17.3065 24.8179Z" fill="#1E5E5E"/>
<path d="M16.0428 25.0081C16.0428 24.976 16.0365 24.9442 16.0242 24.9146C16.0119 24.8849 15.9939 24.858 15.9712 24.8353C15.9485 24.8126 15.9216 24.7945 15.8919 24.7823C15.8623 24.77 15.8305 24.7637 15.7984 24.7637H13.96C13.8952 24.7637 13.833 24.7894 13.7872 24.8353C13.7413 24.8811 13.7156 24.9433 13.7156 25.0081C13.7156 25.073 13.7413 25.1351 13.7872 25.181C13.833 25.2268 13.8952 25.2526 13.96 25.2526H15.7984C15.8305 25.2526 15.8623 25.2463 15.8919 25.234C15.9216 25.2217 15.9485 25.2037 15.9712 25.181C15.9939 25.1583 16.0119 25.1314 16.0242 25.1017C16.0365 25.072 16.0428 25.0402 16.0428 25.0081V25.0081Z" fill="#1E5E5E"/>
</svg>
