<svg width="40" height="40" viewBox="0 0 40 40" fill="none" xmlns="http://www.w3.org/2000/svg">
<rect width="40" height="40" rx="8" fill="#1E5E5E" fill-opacity="0.1"/>
<path d="M27.976 27.3828C27.9759 27.3828 27.3714 25.5696 26.8259 23.9325C26.5132 22.9945 25.8959 22.2238 25.1059 21.7139C24.4792 22.4469 23.5482 22.9123 22.5104 22.9123H17.4896C16.4518 22.9123 15.5208 22.4469 14.8941 21.7139C14.1041 22.2238 13.4868 22.9946 13.1741 23.9326C12.6285 25.5696 12.0241 27.3828 12.0241 27.3828C11.9764 27.5258 12.0004 27.6829 12.0885 27.8052C12.1765 27.9274 12.318 27.9998 12.4687 27.9998H18.9958C19.2109 27.9998 19.3984 27.8534 19.4506 27.6448L20 25.4471L20.5494 27.6447C20.6016 27.8534 20.7891 27.9998 21.0042 27.9998H27.5313C27.682 27.9998 27.8235 27.9274 27.9116 27.8051C27.9997 27.6829 28.0236 27.5258 27.976 27.3828V27.3828Z" fill="#1E5E5E"/>
<path d="M17.4896 21.975H18.9958C17.6299 21.975 16.5187 20.8638 16.5187 19.4979C16.5187 18.7248 16.8196 17.9983 17.3661 17.4523L18.7808 16.0372C19.4531 15.3653 20.5468 15.3652 21.219 16.0371C21.2191 16.0372 21.2191 16.0372 21.2191 16.0372L22.634 17.4523C23.1803 17.9984 23.4812 18.7248 23.4812 19.4976C23.4812 20.8638 22.37 21.975 21.0041 21.975H22.5104C23.8807 21.975 24.9875 20.8658 24.9875 19.4979C24.9875 17.629 24.199 16.0048 23.0751 14.8809L20.3314 12.1373C20.1484 11.9542 19.8516 11.9542 19.6685 12.1373L16.9249 14.8809C15.801 16.0047 15.0125 17.6288 15.0125 19.4979C15.0125 20.8683 16.1215 21.975 17.4896 21.975V21.975Z" fill="#1E5E5E"/>
<path d="M22.5437 19.4979C22.5437 18.9753 22.3404 18.4844 21.9711 18.1153L20.5562 16.7001C20.2492 16.3933 19.7501 16.3938 19.4436 16.7002L18.0288 18.1152C17.6595 18.4843 17.4562 18.9752 17.4562 19.4976C17.4562 20.3468 18.1468 21.0375 18.9958 21.0375H21.0041C21.8531 21.0375 22.5437 20.3468 22.5437 19.4979Z" fill="#1E5E5E"/>
</svg>
