<svg width="80" height="90" viewBox="0 0 80 90" fill="none" xmlns="http://www.w3.org/2000/svg">
<g opacity="0.1">
<path d="M49.2612 46.0916L56.6748 57.5L65.6528 42.4114L49.2612 46.0916Z" fill="#2F2D2D"/>
<path d="M42.3728 31.8174L25.1359 37.2034L42.3728 41.0732V31.8174Z" fill="#2F2D2D"/>
<path d="M47.6271 32.1045V41.0732L62.1176 37.82L47.6271 32.1045Z" fill="#2F2D2D"/>
<path d="M19.2852 41.275L28.6455 64.7014L40.7387 46.0916L19.2852 41.275Z" fill="#2F2D2D"/>
<path d="M34.0612 66.0104L52.6142 60.8943L45 49.1772L34.0612 66.0104Z" fill="#2F2D2D"/>
<path d="M71.2433 35.7711L88.5474 31.8862L47.6271 2.15594V26.4563L71.2433 35.7711Z" fill="#2F2D2D"/>
<path d="M72.7099 40.827L59.8666 62.4115L74.4392 84.8364L90 36.9452L72.7099 40.827Z" fill="#2F2D2D"/>
<path d="M13.0693 39.8795L0 36.9452L15.5609 84.8364L25.1416 70.0931L13.0693 39.8795Z" fill="#2F2D2D"/>
<path d="M29.7461 72.6506L19.8728 87.844H70.1273L55.6177 65.5163L29.7461 72.6506Z" fill="#2F2D2D"/>
<path d="M42.3728 26.3127V2.15594L1.45264 31.8862L14.8839 34.9017L42.3728 26.3127Z" fill="#2F2D2D"/>
</g>
</svg>
