<svg width="80" height="90" viewBox="0 0 80 90" fill="none" xmlns="http://www.w3.org/2000/svg">
<g opacity="0.1">
<path d="M44.9435 13.4803C42.1522 8.74512 36.8375 2.8125 27.7404 2.8125C16.4803 2.8125 7.99072 11.9329 7.99072 24.0272C7.99072 36.3224 17.3841 44.1998 31.6003 55.8591C42.0526 64.4312 42.5611 65.0535 45.0001 67.1217C47.0147 65.3959 48.1488 64.4783 57.4041 56.6984C73.1934 43.4273 81.8916 35.9439 81.8916 24.0272C81.8916 11.9329 73.4021 2.8125 62.1421 2.8125C53.6731 2.8125 47.9767 8.27912 44.9435 13.4803Z" fill="#2F2D2D"/>
<path d="M73.1859 70.5491L64.1453 61.5085L71.3215 87.1541L80.6429 77.8303L90 87.1875L82.507 61.2253L73.1859 70.5491Z" fill="#2F2D2D"/>
<path d="M18.8543 87.1541L26.0306 61.5085L16.99 70.5491L7.66881 61.2253L0 87.1875L9.53297 77.8303L18.8543 87.1541Z" fill="#2F2D2D"/>
</g>
</svg>
