<svg width="40" height="40" viewBox="0 0 40 40" fill="none" xmlns="http://www.w3.org/2000/svg">
<rect width="40" height="40" rx="8" fill="#1E5E5E" fill-opacity="0.1"/>
<g clip-path="url(#clip0_546_17958)">
<path d="M26.4109 15.6613C26.4108 15.6613 26.4108 15.6613 26.4109 15.6613C26.0777 15.6113 25.4482 15.687 23.8345 16.9149C23.6598 17.0478 23.4308 17.0884 23.2219 17.0234L20.6289 16.2168C19.4454 15.8159 17.8807 16.39 16.7955 17.0221C15.9199 17.532 14.2043 18.7488 14.9256 19.4615C15.4558 19.9853 16.7226 19.1984 18.2918 18.9611C18.6809 18.9022 18.8912 18.9218 18.999 18.9485C18.5969 20.4877 14.2009 25.8995 13.1486 27.1546C12.8392 27.524 13.1831 28.0762 13.651 27.9612C15.8911 27.4116 17.7365 25.8052 19.0647 24.2894C20.272 24.2653 20.6864 24.4863 20.7441 24.5791C20.9104 24.8463 20.7756 25.635 20.6864 26.1569C20.5553 26.9239 20.4518 27.5298 20.8494 27.8595C21.0609 28.0348 21.3384 28.0388 21.5839 27.9105C22.3553 27.5072 23.7484 25.0275 23.6393 23.7452C23.5493 22.6869 22.0022 22.0454 20.992 21.7226C21.3068 21.2452 21.6371 20.8125 21.876 19.7013C22.5545 19.8625 23.5582 20.0694 24.0609 19.994C24.6068 19.9122 25.3376 19.1079 25.8545 18.4476C26.2709 17.9156 26.9696 16.9338 26.9696 16.3352C26.9696 15.9822 26.745 15.7114 26.4109 15.6613Z" fill="#1E5E5E"/>
<path d="M21.6643 16.1303C22.8039 16.1303 23.731 15.2039 23.731 14.0652C23.731 12.9265 22.8039 12 21.6643 12C20.5248 12 19.5977 12.9265 19.5977 14.0652C19.5977 15.2039 20.5248 16.1303 21.6643 16.1303Z" fill="#1E5E5E"/>
</g>
<defs>
<clipPath id="clip0_546_17958">
<rect width="16" height="16" fill="white" transform="translate(12 12)"/>
</clipPath>
</defs>
</svg>
