<svg width="40" height="40" viewBox="0 0 40 40" fill="none" xmlns="http://www.w3.org/2000/svg">
<rect width="40" height="40" rx="8" fill="#1E5E5E" fill-opacity="0.1"/>
<g clip-path="url(#clip0_546_18008)">
<path fill-rule="evenodd" clip-rule="evenodd" d="M24.5372 25.7301C24.5372 28.2358 15.4629 28.2358 15.4629 25.7301C15.4629 23.2244 17.4945 21.1931 20.0002 21.1931C22.5059 21.1931 24.5372 23.2244 24.5372 25.7301ZM12.996 14.7132C13.7259 14.8952 14.3005 15.4699 14.4825 16.1998C14.4896 16.228 14.5141 16.2472 14.5432 16.2472C14.5723 16.2472 14.5968 16.228 14.6038 16.1998C14.7858 15.4699 15.3604 14.8952 16.0904 14.7132C16.1186 14.7062 16.1378 14.6817 16.1378 14.6526C16.1377 14.6235 16.1186 14.599 16.0904 14.592C15.3604 14.41 14.7858 13.8353 14.6038 13.1053C14.5967 13.0772 14.5722 13.058 14.5432 13.058C14.5141 13.058 14.4896 13.0772 14.4826 13.1053C14.3006 13.8353 13.726 14.4099 12.996 14.592C12.9678 14.599 12.9486 14.6235 12.9486 14.6526C12.9486 14.6817 12.9678 14.7062 12.996 14.7132ZM14.5432 22.6127C14.0985 22.6127 13.7379 22.2521 13.7379 21.8074C13.7379 21.3627 14.0985 21.0021 14.5432 21.0021C14.9879 21.0021 15.3485 21.3627 15.3485 21.8074C15.3485 22.2521 14.9879 22.6127 14.5432 22.6127ZM25.4568 12.3906C25.9015 12.3906 26.2621 12.7512 26.2621 13.1959C26.2621 13.6407 25.9015 14.0013 25.4568 14.0013C25.0121 14.0013 24.6515 13.6407 24.6515 13.1959C24.6515 12.7512 25.0121 12.3906 25.4568 12.3906ZM23.9096 20.4114C24.6396 20.5934 25.2142 21.168 25.3962 21.898C25.4032 21.9262 25.4278 21.9454 25.4569 21.9453C25.4859 21.9453 25.5104 21.9262 25.5175 21.898C25.6995 21.168 26.2741 20.5934 27.004 20.4114C27.0323 20.4043 27.0515 20.3798 27.0515 20.3507C27.0514 20.3217 27.0323 20.2972 27.0041 20.2901C26.2741 20.1081 25.6995 19.5335 25.5175 18.8035C25.5104 18.7753 25.4859 18.7561 25.4569 18.7561C25.4278 18.7561 25.4033 18.7753 25.3963 18.8035C25.2143 19.5334 24.6396 20.1081 23.9097 20.2901C23.8815 20.2971 23.8623 20.3217 23.8623 20.3507C23.8623 20.3798 23.8815 20.4043 23.9096 20.4114ZM17.9031 17.8876C17.9031 19.0458 18.842 19.9846 20.0001 19.9846C21.1583 19.9846 22.0971 19.0458 22.0971 17.8876C22.0971 16.7298 21.1583 15.7909 20.0001 15.7909C18.842 15.7909 17.9031 16.7298 17.9031 17.8876Z" fill="#1E5E5E"/>
</g>
<defs>
<clipPath id="clip0_546_18008">
<rect width="16" height="16" fill="white" transform="translate(12 12)"/>
</clipPath>
</defs>
</svg>
