<svg width="40" height="40" viewBox="0 0 40 40" fill="none" xmlns="http://www.w3.org/2000/svg">
<rect width="40" height="40" rx="8" fill="#1E5E5E" fill-opacity="0.1"/>
<g clip-path="url(#clip0_546_17980)">
<path d="M12.253 17.7531C12.4265 18.0366 12.6789 18.2637 12.9793 18.4065C13.1217 18.4743 13.1823 18.6448 13.1144 18.7874C13.0465 18.9298 12.876 18.9904 12.7335 18.9225C12.6193 18.8672 12.5099 18.8025 12.4064 18.729C12.7197 19.658 13.5902 20.2841 14.5707 20.2856H14.5878C14.5713 20.1279 14.5676 19.9692 14.5767 19.811C14.7032 18.2875 15.9874 17.1217 17.5161 17.1427H19.142C19.2998 17.1427 19.4276 17.0148 19.4276 16.8571C19.4276 16.3837 19.8114 15.9999 20.2848 15.9999H21.142C21.2998 15.9999 21.4276 16.1279 21.4276 16.2857C21.4276 16.4434 21.2998 16.5713 21.142 16.5713H20.2848C20.127 16.5713 19.9992 16.6993 19.9992 16.8571C19.9992 17.3305 19.6154 17.7141 19.142 17.7141H17.5161C16.2887 17.6925 15.2539 18.6244 15.1472 19.8473C15.1333 20.0636 15.15 20.2808 15.1969 20.4924C15.2092 20.5496 15.2237 20.6033 15.2401 20.6573C15.2431 20.6678 15.2463 20.6787 15.2497 20.6893C15.2674 20.7464 15.2872 20.8008 15.3092 20.8547L15.316 20.871C15.5899 21.5263 16.1506 22.0189 16.8358 22.2061L16.8566 22.2115C16.9089 22.2253 16.962 22.2367 17.0157 22.2467C17.0426 22.2516 17.07 22.2552 17.0971 22.2592C17.1361 22.265 17.1746 22.271 17.2141 22.2747C17.2846 22.2812 17.3569 22.2856 17.4277 22.2856C18.1507 22.2837 18.8302 21.9403 19.2609 21.3596C19.1255 21.2732 18.9956 21.1787 18.8717 21.0768C18.7504 20.9758 18.7338 20.7956 18.8348 20.6743C18.9356 20.553 19.1158 20.5364 19.2371 20.6373C20.0265 21.294 21.0691 21.5616 22.0773 21.3662C23.0854 21.1706 23.9524 20.5327 24.439 19.6284C24.2857 19.4201 24.1689 19.1871 24.0936 18.9396C24.05 18.7888 24.1362 18.631 24.2867 18.5863C24.4371 18.5415 24.5955 18.6266 24.6413 18.7768C24.8627 19.5278 25.565 20.0334 26.3476 20.0051C27.1302 19.9768 27.7941 19.4218 27.9606 18.6566C28.1272 17.8915 27.7542 17.1108 27.0541 16.7597C27.0177 16.9258 26.9689 17.089 26.9081 17.248C26.8508 17.3949 26.685 17.4677 26.5379 17.4102C26.3908 17.3528 26.3182 17.1869 26.3755 17.04C26.4653 16.809 26.5242 16.5673 26.5507 16.3211C26.5553 16.2817 26.5582 16.2448 26.561 16.2068C26.5658 16.1379 26.5705 16.0694 26.5705 15.9999C26.5705 14.7612 25.7706 13.6643 24.591 13.2857C24.6809 13.4216 24.7607 13.5639 24.8299 13.7114C24.8775 13.8048 24.8701 13.9168 24.8106 14.0031C24.7512 14.0894 24.6491 14.1363 24.5449 14.1252C24.4406 14.114 24.3509 14.0466 24.311 13.9497C23.6867 12.6114 22.1482 11.9661 20.756 12.4586C20.5453 12.5311 20.344 12.6282 20.156 12.7477C20.0237 12.8338 19.8467 12.7965 19.7605 12.6643C19.6743 12.5321 19.7117 12.355 19.844 12.2688C19.8871 12.2402 19.9323 12.2157 19.9766 12.1894C19.3715 11.9021 18.6615 11.9437 18.0943 12.3C18.2267 12.4171 18.3451 12.5492 18.4472 12.6937C18.5081 12.7773 18.519 12.8873 18.4758 12.9813C18.4325 13.0753 18.3419 13.1387 18.2387 13.1467C18.1356 13.1549 18.0361 13.1066 17.9786 13.0205C17.8438 12.8285 17.6712 12.6659 17.4715 12.5428H17.4688C16.7251 12.0803 15.7516 12.2588 15.2203 12.9552C15.3334 12.9874 15.4437 13.0285 15.5504 13.0782C15.645 13.1206 15.7093 13.2108 15.7185 13.3141C15.7275 13.4173 15.68 13.5174 15.5942 13.5757C15.5084 13.6338 15.3978 13.641 15.3052 13.5942C14.8425 13.3756 14.3064 13.375 13.8433 13.5927C13.3803 13.8104 13.0386 14.2236 12.9118 14.7194C13.0654 14.661 13.2249 14.6193 13.3875 14.5954C13.5438 14.5731 13.6886 14.6818 13.7108 14.8381C13.733 14.9943 13.6244 15.1391 13.468 15.1613C13.2068 15.1989 12.9579 15.2967 12.741 15.4471L12.7372 15.4503C11.9929 15.9644 11.7787 16.9699 12.2489 17.7427C12.2506 17.7467 12.2512 17.7502 12.253 17.7531Z" fill="#1E5E5E"/>
<path d="M24.1419 23.143C25.6385 23.143 26.8561 22.182 26.8561 21.0002C26.8556 20.8357 26.8311 20.672 26.7832 20.5145C26.1037 20.6693 25.3907 20.5027 24.8502 20.0625C24.1817 21.1643 23.0262 21.8795 21.7419 21.9862C22.156 22.5658 22.7826 22.958 23.4848 23.0771C23.7009 23.1218 23.9212 23.1439 24.1419 23.143Z" fill="#1E5E5E"/>
<path d="M21.0848 21.9816C20.6832 21.9463 20.2892 21.8508 19.9159 21.6981C19.9055 21.6969 19.8953 21.6948 19.8851 21.6921C19.8566 21.6799 19.828 21.6653 19.7994 21.6527C19.788 21.6476 19.7756 21.6442 19.7643 21.6387C19.665 21.7784 19.5533 21.9089 19.4305 22.0284C19.4459 22.4895 19.8235 22.8557 20.2848 22.857C20.5401 22.8515 20.7853 22.9577 20.9559 23.1478L22.6085 25.0407C22.6673 25.1048 22.7501 25.1418 22.837 25.1426C23.0048 25.1431 23.1413 25.0076 23.1419 24.8398V23.5787C22.2552 23.3736 21.5031 22.7898 21.0848 21.9816Z" fill="#1E5E5E"/>
</g>
<defs>
<clipPath id="clip0_546_17980">
<rect width="16" height="16" fill="white" transform="translate(12 12)"/>
</clipPath>
</defs>
</svg>
