<svg width="40" height="40" viewBox="0 0 40 40" fill="none" xmlns="http://www.w3.org/2000/svg">
<rect width="40" height="40" rx="8" fill="#1E5E5E" fill-opacity="0.1"/>
<g clip-path="url(#clip0_546_17947)">
<path d="M27.2281 18.1577C27.2281 18.1685 27.2281 18.1793 27.2173 18.188C27.2064 18.1966 26.7654 19.2431 26.9708 21.0161C26.9902 21.1804 27.4183 25.0355 25.8594 26.6874C25.7708 26.8258 25.2648 27.5674 24.6529 27.5674C24.5513 27.5675 24.4507 27.5477 24.3567 27.5091L23.8919 27.4161C23.3666 27.3092 22.8322 27.2541 22.2962 27.2518C21.8875 27.2518 21.4832 27.2345 21.0875 27.1999C19.5037 27.0449 18.0078 26.3994 16.8086 25.3534L16.7892 25.3361C16.2962 24.9251 15.6854 24.6814 15.0449 24.6402C14.4044 24.599 13.7674 24.7624 13.2259 25.1069L13.0292 25.228C12.9964 25.2484 12.9587 25.2598 12.9201 25.2608C12.8815 25.2618 12.8433 25.2524 12.8096 25.2336C12.7758 25.2149 12.7477 25.1874 12.7281 25.1541C12.7085 25.1208 12.6983 25.0828 12.6983 25.0442V16.9015C12.6963 16.8842 12.6963 16.8668 12.6983 16.8496C12.7491 16.6489 12.8702 16.473 13.0396 16.354C13.209 16.2349 13.4155 16.1806 13.6216 16.2009C13.8551 16.1815 16.0302 16.0388 17.2086 17.1372C17.2583 17.1847 18.2897 18.2182 18.6919 19.2518C18.7113 19.2777 18.7956 19.3707 19.0421 19.3036C19.0746 19.3036 20.9881 18.9209 22.374 21.0615C22.5189 20.268 22.8843 18.8842 23.7859 17.7707C23.4331 17.7225 23.0999 17.5798 22.8216 17.3577C22.3732 16.965 22.0962 16.4125 22.0497 15.8182L21.6778 15.8053C21.5655 15.8014 21.4552 15.7742 21.354 15.7254C21.2527 15.6767 21.1627 15.6074 21.0897 15.522C21.0167 15.4379 20.9622 15.3394 20.9298 15.2329C20.8974 15.1263 20.8878 15.0141 20.9016 14.9036C20.9729 14.2479 21.1284 13.604 21.3643 12.988C21.4445 12.7759 21.6048 12.6039 21.8106 12.5088C22.0165 12.4138 22.2514 12.4034 22.4648 12.4799C23.3217 12.7762 24.2272 12.9068 25.1329 12.8647C25.369 12.8583 25.599 12.9393 25.779 13.0921C25.959 13.245 26.0762 13.4589 26.1081 13.6928C26.1989 14.3718 26.4151 15.6063 26.841 16.2528C27.0416 16.5224 27.1803 16.8328 27.2472 17.1621C27.3141 17.4913 27.3075 17.8313 27.2281 18.1577Z" fill="#1E5E5E"/>
</g>
<defs>
<clipPath id="clip0_546_17947">
<rect width="16" height="16" fill="white" transform="translate(12 12)"/>
</clipPath>
</defs>
</svg>
