<svg width="40" height="40" viewBox="0 0 40 40" fill="none" xmlns="http://www.w3.org/2000/svg">
<rect width="40" height="40" rx="8" fill="#1E5E5E" fill-opacity="0.1"/>
<path d="M24.333 14.8593C24.2884 14.8648 24.2432 14.8589 24.2015 14.8422C24.1598 14.8256 24.1231 14.7986 24.0946 14.7639C23.7906 14.4221 23.4062 14.1615 22.9761 14.0056C22.546 13.8498 22.0839 13.8036 21.6315 13.8714C21.5936 13.8773 21.5548 13.8749 21.5179 13.8645C21.481 13.854 21.4468 13.8357 21.4176 13.8108C21.3885 13.7859 21.365 13.755 21.3489 13.7202C21.3328 13.6854 21.3244 13.6475 21.3243 13.6092V13H18.6758V13.6092C18.6756 13.6475 18.6672 13.6854 18.6511 13.7202C18.635 13.755 18.6115 13.7859 18.5823 13.8108C18.5532 13.8357 18.519 13.854 18.4821 13.8644C18.4452 13.8749 18.4064 13.8773 18.3685 13.8714C17.9162 13.8043 17.4542 13.8507 17.0242 14.0065C16.5943 14.1623 16.2098 14.4226 15.9054 14.7639C15.877 14.7986 15.8402 14.8256 15.7985 14.8422C15.7568 14.8589 15.7116 14.8647 15.6671 14.8592C13.9243 14.6394 13.2516 15.5823 13.1139 15.8154V21.4196C13.5194 21.3285 14.0998 21.1326 14.3137 20.7628C14.339 20.7189 14.3764 20.6831 14.4215 20.6599C14.4665 20.6366 14.5173 20.6267 14.5678 20.6315C14.6183 20.6362 14.6664 20.6553 14.7063 20.6866C14.7462 20.7179 14.7763 20.7599 14.7931 20.8078C14.8998 21.0177 15.0654 21.192 15.2694 21.3096C15.4735 21.4271 15.7073 21.4828 15.9425 21.4699C15.9847 21.4685 16.0266 21.4772 16.0647 21.4951C16.1029 21.5131 16.1363 21.5398 16.1621 21.5731C16.188 21.6065 16.2056 21.6455 16.2134 21.6869C16.2213 21.7284 16.2192 21.7711 16.2074 21.8116C16.1968 21.8407 15.9902 22.6088 16.8086 23.2815C16.8607 23.3268 16.8932 23.3907 16.8991 23.4595C16.9049 23.5284 16.8837 23.5968 16.8399 23.6502C16.7961 23.7037 16.7332 23.7379 16.6645 23.7457C16.5959 23.7535 16.5269 23.7343 16.4722 23.692C16.2075 23.4954 15.9945 23.2375 15.8515 22.9404C15.7085 22.6433 15.6397 22.3159 15.6512 21.9864C15.4283 21.9606 15.2127 21.8907 15.0172 21.7806C14.8216 21.6706 14.65 21.5226 14.5123 21.3454C14.454 21.3983 14.3921 21.447 14.3269 21.4911C14.4813 22.4902 14.8112 23.4541 15.3016 24.3383L15.6909 26.7775C15.7009 26.8397 15.7329 26.8964 15.7809 26.9371C15.829 26.9779 15.89 27.0002 15.9531 27H24.0469C24.11 27.0002 24.171 26.9779 24.2191 26.9371C24.2672 26.8964 24.2991 26.8398 24.3091 26.7775L24.6985 24.3383C25.1888 23.4542 25.5187 22.4902 25.6731 21.4911C25.6079 21.447 25.546 21.3983 25.4877 21.3454C25.3766 21.485 25.2454 21.6073 25.0984 21.7083C24.875 21.8608 24.6177 21.9563 24.3488 21.9864C24.3603 22.3159 24.2915 22.6433 24.1485 22.9404C24.0055 23.2375 23.7925 23.4954 23.5278 23.692C23.4732 23.7346 23.4041 23.754 23.3353 23.7463C23.2664 23.7386 23.2034 23.7043 23.1595 23.6508C23.1156 23.5972 23.0944 23.5286 23.1004 23.4596C23.1063 23.3906 23.139 23.3267 23.1915 23.2815C24.0098 22.6088 23.8033 21.8407 23.7927 21.8089C23.781 21.7686 23.779 21.7261 23.787 21.6848C23.7949 21.6436 23.8126 21.6048 23.8384 21.5717C23.8643 21.5386 23.8976 21.5121 23.9357 21.4944C23.9738 21.4767 24.0155 21.4683 24.0575 21.4699C24.2946 21.4807 24.5298 21.4226 24.7346 21.3028C24.9395 21.183 25.1054 21.0065 25.2123 20.7946C25.2325 20.7472 25.2661 20.7067 25.3089 20.678C25.3517 20.6492 25.4018 20.6335 25.4534 20.6326C25.5049 20.6318 25.5556 20.6459 25.5992 20.6732C25.6429 20.7005 25.6778 20.7399 25.6996 20.7866C25.9221 21.1362 26.4888 21.3322 26.8861 21.4196V15.8127C26.751 15.5849 26.0783 14.6368 24.333 14.8593ZM21.1706 16.0219L23.5675 15.4869C23.6358 15.4729 23.7069 15.4863 23.7654 15.5241C23.824 15.562 23.8653 15.6213 23.8806 15.6893C23.8959 15.7573 23.8838 15.8286 23.8471 15.8879C23.8103 15.9471 23.7518 15.9895 23.6841 16.0061L21.2872 16.5384C21.2191 16.5527 21.1481 16.5397 21.0896 16.5022C21.031 16.4646 20.9896 16.4055 20.9743 16.3376C20.959 16.2698 20.971 16.1986 21.0078 16.1395C21.0445 16.0804 21.103 16.0382 21.1706 16.0219ZM16.1146 15.6882C16.131 15.6199 16.1734 15.5607 16.2327 15.5231C16.2921 15.4855 16.3637 15.4725 16.4325 15.4869L18.8294 16.0219C18.8633 16.0293 18.8955 16.0434 18.924 16.0632C18.9525 16.0831 18.9768 16.1084 18.9955 16.1377C19.0142 16.167 19.0269 16.1997 19.033 16.2339C19.039 16.2681 19.0382 16.3032 19.0307 16.3371C19.0146 16.4056 18.9724 16.4651 18.9129 16.5028C18.8535 16.5404 18.7816 16.5532 18.7128 16.5384L16.3159 16.006C16.2474 15.99 16.188 15.9477 16.1504 15.8883C16.1127 15.8288 16.0999 15.757 16.1147 15.6882H16.1146ZM17.6561 21.8036C17.5899 21.824 17.5184 21.8177 17.4568 21.7861C17.3952 21.7546 17.3483 21.7002 17.3262 21.6346C17.3041 21.569 17.3085 21.4973 17.3385 21.4349C17.3684 21.3725 17.4216 21.3242 17.4866 21.3004C17.5237 21.2872 18.395 20.9985 20 21.4593C21.605 20.9985 22.4764 21.2872 22.5134 21.3004C22.5798 21.3235 22.6343 21.372 22.665 21.4352C22.6958 21.4983 22.7003 21.5711 22.6776 21.6376C22.6548 21.7041 22.6067 21.7589 22.5437 21.79C22.4807 21.8211 22.4079 21.826 22.3413 21.8036C22.3254 21.7983 21.6077 21.5759 20.2649 21.9361V23.0776C20.2638 23.1471 20.2354 23.2135 20.1859 23.2623C20.1363 23.3111 20.0696 23.3384 20 23.3384C19.9304 23.3384 19.8637 23.3111 19.8141 23.2623C19.7646 23.2134 19.7362 23.1471 19.7352 23.0775V21.936C18.3844 21.5732 17.664 21.801 17.6561 21.8036H17.6561ZM17.4866 23.6523C17.5237 23.639 18.395 23.3503 20 23.8112C21.605 23.3503 22.4764 23.639 22.5134 23.6523C22.5786 23.6761 22.6317 23.7245 22.6616 23.7871C22.6914 23.8497 22.6954 23.9215 22.6729 23.987C22.6504 24.0526 22.603 24.1067 22.541 24.1377C22.479 24.1687 22.4073 24.1741 22.3413 24.1529C22.3254 24.1502 21.6076 23.9277 20.2649 24.2879V25.4294C20.2649 25.4997 20.237 25.567 20.1873 25.6167C20.1376 25.6664 20.0702 25.6943 20 25.6943C19.9298 25.6943 19.8624 25.6664 19.8127 25.6167C19.7631 25.567 19.7352 25.4997 19.7352 25.4294V24.2879C18.3844 23.9251 17.664 24.1502 17.6561 24.1529C17.5903 24.1731 17.5192 24.1669 17.458 24.1355C17.3967 24.1042 17.3501 24.0502 17.328 23.985C17.3059 23.9198 17.3101 23.8486 17.3398 23.7864C17.3694 23.7243 17.422 23.6762 17.4866 23.6523H17.4866ZM25.1831 19.7219L24.6455 20.3099C24.5052 20.4623 24.3349 20.584 24.1453 20.6674C23.9557 20.7508 23.7509 20.7941 23.5437 20.7946H21.6898C21.3238 20.7933 20.9667 20.6817 20.6652 20.4743C20.3638 20.2668 20.1319 19.9732 20 19.6319C19.8681 19.9732 19.6362 20.2668 19.3348 20.4743C19.0333 20.6817 18.6762 20.7933 18.3103 20.7946H16.4563C16.2492 20.7941 16.0443 20.7508 15.8547 20.6674C15.6651 20.584 15.4948 20.4623 15.3545 20.3099L14.8169 19.7219C14.7715 19.6696 14.7484 19.6017 14.7524 19.5325C14.7564 19.4634 14.7873 19.3986 14.8385 19.3519C14.8896 19.3053 14.957 19.2805 15.0262 19.2828C15.0954 19.2851 15.161 19.3144 15.2089 19.3644C15.5343 19.697 15.9222 20.305 16.4563 20.2648L18.3103 20.2648C18.6126 20.2636 18.9049 20.1559 19.1359 19.9608C19.3669 19.7656 19.5219 19.4954 19.5736 19.1975L19.7405 18.2917C19.7474 18.2537 19.7626 18.2177 19.7849 18.1861C19.8073 18.1546 19.8362 18.1283 19.8698 18.1092C19.9033 18.09 19.9407 18.0784 19.9792 18.0752C20.0177 18.0719 20.0564 18.0771 20.0927 18.0904C20.1358 18.1063 20.1739 18.1333 20.2032 18.1687C20.2325 18.204 20.2519 18.2464 20.2596 18.2917L20.4264 19.1975C20.4782 19.4954 20.6331 19.7656 20.8641 19.9608C21.0951 20.1559 21.3874 20.2636 21.6898 20.2648H23.5437C24.075 20.3068 24.4698 19.6933 24.7912 19.3643C24.8391 19.3145 24.9046 19.2853 24.9738 19.2831C25.0429 19.2808 25.1102 19.3057 25.1613 19.3523C25.2123 19.3989 25.2432 19.4636 25.2473 19.5326C25.2514 19.6017 25.2284 19.6696 25.1831 19.7219H25.1831Z" fill="#1E5E5E"/>
</svg>
