<svg width="40" height="40" viewBox="0 0 40 40" fill="none" xmlns="http://www.w3.org/2000/svg">
<rect width="40" height="40" rx="8" fill="#1E5E5E" fill-opacity="0.1"/>
<g clip-path="url(#clip0_546_17999)">
<path d="M25 21.165V23.34C25 24.13 24.535 24.835 23.815 25.165C22.94 25.565 21.615 26 20 26C18.385 26 17.06 25.565 16.18 25.165C15.465 24.835 15 24.13 15 23.34V21.165L18.555 22.79C19.01 23 19.5 23.105 20 23.105C20.5 23.105 20.99 23 21.445 22.79L25 21.165Z" fill="#1E5E5E"/>
<path d="M27 20.25V23.5C27 23.775 26.775 24 26.5 24C26.225 24 26 23.775 26 23.5V20.71L27 20.25Z" fill="#1E5E5E"/>
<path d="M18.969 21.8816C19.2965 22.0311 19.648 22.1061 20 22.1061C20.352 22.1061 20.703 22.0316 21.031 21.8816L27.4165 18.9626C27.7765 18.7981 28 18.4496 28 18.0531C28 17.6566 27.7765 17.3076 27.4165 17.1431L21.031 14.2246C20.3755 13.9251 19.625 13.9251 18.9695 14.2246L12.5835 17.1426C12.2235 17.3076 12 17.6561 12 18.0526C12 18.4491 12.2235 18.7976 12.5835 18.9626L18.969 21.8811V21.8816Z" fill="#1E5E5E"/>
</g>
<defs>
<clipPath id="clip0_546_17999">
<rect width="16" height="16" fill="white" transform="translate(12 12)"/>
</clipPath>
</defs>
</svg>
