<svg width="80" height="90" viewBox="0 0 80 90" fill="none" xmlns="http://www.w3.org/2000/svg">
<g opacity="0.1" clip-path="url(#clip0_1359_6468)">
<path d="M76.8164 31.8164C70.4503 31.8164 65.1247 36.3531 63.8996 42.3633H47.1945C46.8649 39.4327 46.0255 36.6831 44.7242 34.1724L62.2675 22.536C64.6515 24.9008 67.928 26.3672 71.543 26.3672C78.8121 26.3672 84.7266 20.4527 84.7266 13.1836C84.7266 5.91451 78.8121 0 71.543 0C64.2739 0 58.3594 5.91451 58.3594 13.1836C58.3594 14.9404 58.7192 16.6119 59.3459 18.1461L41.7918 29.7893C37.4354 24.625 31.0004 21.2695 23.7305 21.2695C10.6448 21.2695 0 31.9143 0 45C0 58.0857 10.6448 68.7305 23.7305 68.7305C31.0004 68.7305 37.4354 65.375 41.792 60.2107L59.346 71.8539C58.7192 73.3881 58.3594 75.0596 58.3594 76.8164C58.3594 84.0855 64.2739 90 71.543 90C78.8121 90 84.7266 84.0855 84.7266 76.8164C84.7266 69.5473 78.8121 63.6328 71.543 63.6328C67.928 63.6328 64.6515 65.0992 62.2675 67.464L44.7242 55.8276C46.0255 53.3171 46.8649 50.5673 47.1945 47.6367H63.8996C65.1247 53.6469 70.4503 58.1836 76.8164 58.1836C84.0855 58.1836 90 52.2691 90 45C90 37.7309 84.0855 31.8164 76.8164 31.8164V31.8164Z" fill="#2F2D2D"/>
</g>
<defs>
<clipPath id="clip0_1359_6468">
<rect width="90" height="90" fill="white"/>
</clipPath>
</defs>
</svg>
