<svg width="80" height="90" viewBox="0 0 80 90" fill="none" xmlns="http://www.w3.org/2000/svg">
<g opacity="0.1" clip-path="url(#clip0_1359_5546)">
<path d="M88.4966 25.1109H65.5077L50.4693 17.4074L55.8031 7.05278C56.1703 6.32285 55.8849 5.43379 55.1611 5.0521L45.7174 0.160191C44.9852 -0.206877 44.0943 0.0778451 43.7118 0.800108L38.3487 11.1547L20.9543 2.22089C20.22 1.85522 19.3277 2.14483 18.9487 2.87128L14.4975 11.4646C14.1318 12.1973 14.4213 13.0878 15.1493 13.466L25.4657 18.7683L0.15123 67.7892H0.150531C-0.050177 68.1996 -0.050177 68.6797 0.150531 69.09L7.05849 84.4566C7.19416 84.7692 7.43544 85.0239 7.74034 85.1767C8.04875 85.3352 8.4026 85.3847 8.74248 85.317L25.4053 82.1655C25.8396 82.0622 26.2067 81.7733 26.4074 81.3748L43.1304 49.0521V75.7242C43.1339 76.2594 43.4199 76.7535 43.8822 77.0243L65.8077 89.7997C66.0413 89.9288 66.3028 89.9972 66.5693 90C66.8336 89.9986 67.0924 89.9302 67.3218 89.7997L89.258 76.9942C89.7182 76.7221 90 76.228 90 75.6942V26.6125C90 25.7834 89.3266 25.1121 88.4958 25.1121L88.4966 25.1109ZM45.6768 3.51055L52.4938 7.01241L47.8419 16.0159L41.0249 12.514L45.6768 3.51055ZM17.8863 11.5043L20.8941 5.5818L58.9912 25.1098H44.4041L17.8863 11.5043ZM8.49218 80.4642L3.15841 68.5889L28.1417 20.1575L37.2847 24.8595L8.49218 80.4642ZM24.1222 79.3539L11.1595 81.855L39.9418 26.2312L43.1097 27.8621V42.4881L24.1222 79.3539ZM86.9931 74.8618L66.5715 86.7566L46.1408 74.8618V28.1115H86.9949L86.9931 74.8618Z" fill="#2F2D2D"/>
<path d="M86.9931 74.8618L66.5715 86.7566L46.1408 74.8618V28.1115H86.9949L86.9931 74.8618Z" fill="#2F2D2D"/>
<path d="M24.1222 79.3539L11.1595 81.855L39.9418 26.2312L43.1097 27.8621V42.4881L24.1222 79.3539Z" fill="#2F2D2D"/>
<path d="M17.8863 11.5043L20.8941 5.5818L58.9912 25.1098H44.4041L17.8863 11.5043Z" fill="#2F2D2D"/>
<path d="M45.6768 3.51055L52.4938 7.01241L47.8419 16.0159L41.0249 12.514L45.6768 3.51055Z" fill="#2F2D2D"/>
<path d="M81.0473 43.4776H71.6029V34.0832C71.6029 33.2542 70.9294 32.5829 70.0993 32.5829H62.4298C61.599 32.5829 60.9255 33.2542 60.9255 34.0832V43.4776H51.5119C51.1063 43.4665 50.7133 43.62 50.4223 43.9026C50.1314 44.1852 49.9678 44.5732 49.9678 44.978V52.6312C49.9678 53.4603 50.6412 54.1316 51.4713 54.1316H60.8857V75.4907C60.8857 76.3191 61.5591 76.9911 62.3892 76.9911H70.0588C70.8896 76.9911 71.563 76.3191 71.563 75.4907V54.1316H81.0474C81.8775 54.1316 82.5509 53.4603 82.5509 52.6312V44.978C82.5509 44.1489 81.8774 43.4776 81.0473 43.4776ZM79.5437 51.1309H68.5951V73.9907H63.9334V51.1309H52.9757V46.4784H63.9334V35.5837H68.5951V46.4784H79.5129L79.5437 51.1309Z" fill="#2F2D2D"/>
<path d="M79.5437 51.1309H68.5951V73.9907H63.9334V51.1309H52.9757V46.4784H63.9334V35.5837H68.5951V46.4784H79.5129L79.5437 51.1309Z" fill="white"/>
</g>
<defs>
<clipPath id="clip0_1359_5546">
<rect width="90" height="90" fill="white"/>
</clipPath>
</defs>
</svg>
