<svg width="80" height="90" viewBox="0 0 80 90" fill="none" xmlns="http://www.w3.org/2000/svg">
<g opacity="0.1" clip-path="url(#clip0_1359_6888)">
<path d="M71.7903 56.0837C73.1087 52.6989 73.7772 49.124 73.7772 45.4588C73.7772 41.7936 73.1087 38.2189 71.7903 34.8339L66.8763 36.7478C67.9563 39.5202 68.5037 42.451 68.5037 45.4588C68.5037 48.4666 67.9563 51.3974 66.8763 54.1698L71.7903 56.0837Z" fill="#2F2D2D"/>
<path d="M44.4744 21.4294C47.4822 21.4294 50.413 21.977 53.1856 23.0566L55.0993 18.1427C51.7143 16.8243 48.1396 16.156 44.4746 16.156C40.8096 16.156 37.2347 16.8245 33.8499 18.1427L35.7636 23.0566C38.5358 21.977 41.4665 21.4294 44.4744 21.4294Z" fill="#2F2D2D"/>
<path d="M17.1601 34.834C15.842 38.219 15.1735 41.7939 15.1735 45.4587C15.1735 49.1238 15.842 52.6985 17.1601 56.0835L22.0741 54.1697C20.9943 51.3971 20.4469 48.4663 20.4469 45.4586C20.4469 42.4509 20.9943 39.52 22.0741 36.7474L17.1601 34.834Z" fill="#2F2D2D"/>
<path d="M44.4744 69.4863C41.4666 69.4863 38.5358 68.9388 35.7632 67.8591L33.8495 72.7731C37.2345 74.0915 40.8092 74.7598 44.4742 74.7598C48.1393 74.7598 51.7141 74.0913 55.099 72.7731L53.1853 67.8591C50.413 68.9388 47.4822 69.4863 44.4744 69.4863Z" fill="#2F2D2D"/>
<path d="M78.833 67.6656C76.6615 67.6656 74.633 68.2886 72.9165 69.365L57.8617 54.7279C59.7066 52.0889 60.7897 48.88 60.7897 45.4229C60.7897 41.8843 59.6549 38.6058 57.7299 35.9323L67.9015 25.7607C69.284 26.5322 70.8755 26.972 72.5679 26.972C77.8653 26.972 82.1747 22.6624 82.1747 17.3653C82.1747 12.0681 77.8651 7.75846 72.5679 7.75846C67.2708 7.75846 62.9613 12.0681 62.9613 17.3653C62.9613 19.0577 63.4013 20.6494 64.1728 22.0319L54.0012 32.2035C51.3276 30.2785 48.0491 29.1437 44.5104 29.1437C41.0539 29.1437 37.8455 30.2266 35.2067 32.0709L22.9834 19.4985C24.3144 17.5071 25.091 15.1153 25.091 12.5455C25.091 5.62781 19.463 0 12.5455 0C5.62799 0 0 5.62781 0 12.5455C0 19.4632 5.62781 25.091 12.5453 25.091C14.9892 25.091 17.2719 24.3886 19.2025 23.1752L31.426 35.7478C29.4193 38.4544 28.2312 41.8027 28.2312 45.4233C28.2312 48.9672 29.3694 52.2501 31.2994 54.9258L11.3122 74.9493C10.2811 74.4562 9.12727 74.1797 7.91016 74.1797C3.5485 74.1797 0 77.7282 0 82.0898C0 86.4515 3.5485 90 7.91016 90C12.2718 90 15.8203 86.4515 15.8203 82.0898C15.8203 80.8676 15.5417 79.7092 15.0444 78.6748L35.032 58.6512C37.7033 60.5707 40.9772 61.7022 44.5104 61.7022C48.1305 61.7022 51.4784 60.5145 54.1849 58.5081L69.2307 73.1364C68.2371 74.8053 67.6658 76.7535 67.6658 78.8328C67.6658 84.9904 72.6753 90 78.833 90C84.9904 90 90 84.9904 90 78.8328C90 72.6752 84.9904 67.6656 78.833 67.6656Z" fill="#2F2D2D"/>
</g>
<defs>
<clipPath id="clip0_1359_6888">
<rect width="90" height="90" fill="white"/>
</clipPath>
</defs>
</svg>
